<?xml version="1.0" encoding="UTF-8"?>
<svg version="1.1" xmlns="http://www.w3.org/2000/svg" width="150" height="50">
<path d="M0 0 C16.17 0 32.34 0 49 0 C49 0.99 49 1.98 49 3 C49.804375 3.185625 50.60875 3.37125 51.4375 3.5625 C58.42947711 6.3838241 64.45382805 10.88780595 67.48828125 17.9453125 C68.62404925 22.50572447 67.46406017 26.6078195 66 31 C72.93 31.495 72.93 31.495 80 32 C80 33.65 80 35.3 80 37 C79.34 37 78.68 37 78 37 C78.495 41.95 78.495 41.95 79 47 C77.95199219 46.90460937 76.90398437 46.80921875 75.82421875 46.7109375 C74.44535978 46.59837758 73.06645071 46.48643036 71.6875 46.375 C70.99720703 46.31054688 70.30691406 46.24609375 69.59570312 46.1796875 C65.7440028 45.88197153 64.31145584 45.79236277 61 48 C53.8916999 49.11935453 46.84358175 49.14599123 39.66015625 49.1328125 C37.91695351 49.13424759 37.91695351 49.13424759 36.13853455 49.13571167 C33.69204657 49.13638918 31.24555675 49.13456497 28.79907227 49.13037109 C25.07759516 49.1250217 21.35623899 49.13032827 17.63476562 49.13671875 C15.24739557 49.1360578 12.86002559 49.13477628 10.47265625 49.1328125 C9.37131851 49.13483673 8.26998077 49.13686096 7.13526917 49.13894653 C-10.91517411 49.08482589 -10.91517411 49.08482589 -14 46 C-17.12814514 45.75639927 -17.12814514 45.75639927 -20.625 45.875 C-22.40777344 45.90207031 -22.40777344 45.90207031 -24.2265625 45.9296875 C-25.59941406 45.96449219 -25.59941406 45.96449219 -27 46 C-27.13277344 45.32453125 -27.26554687 44.6490625 -27.40234375 43.953125 C-27.57894531 43.06109375 -27.75554688 42.1690625 -27.9375 41.25 C-28.11152344 40.36828125 -28.28554688 39.4865625 -28.46484375 38.578125 C-28.92247191 36.37349297 -29.45390014 34.18439943 -30 32 C-25.38 31.67 -20.76 31.34 -16 31 C-16.66 29.68 -17.32 28.36 -18 27 C-18.77346153 23.04344677 -18.74117483 19.50142402 -16.9375 15.84765625 C-12.83757671 10.04314529 -7.16969823 4.38614166 0 3 C0 2.01 0 1.02 0 0 Z " fill="#1F1F1E" transform="translate(47,0)"/>
<path d="M0 0 C3.6815625 -0.0309375 3.6815625 -0.0309375 7.4375 -0.0625 C8.21150146 -0.071604 8.98550293 -0.08070801 9.78295898 -0.09008789 C11.52221717 -0.09724913 13.26145304 -0.05024702 15 0 C15.33 0.33 15.66 0.66 16 1 C18.02153589 0.9673467 20.04252215 0.89830847 22.0625 0.8125 C28.26913178 0.7510482 31.82513517 1.61643454 37 5 C37.495 5.99 37.495 5.99 38 7 C37.175 7.433125 36.35 7.86625 35.5 8.3125 C34.675 8.869375 33.85 9.42625 33 10 C33 10.99 33 11.98 33 13 C34.32 13 35.64 13 37 13 C37 11.35 37 9.7 37 8 C37.804375 8.020625 38.60875 8.04125 39.4375 8.0625 C41.93354885 8.29633621 41.93354885 8.29633621 43 7 C42.01 7 41.02 7 40 7 C39.401875 6.38125 38.80375 5.7625 38.1875 5.125 C35.61575411 2.62673257 33.42169383 1.93318923 30 1 C30 0.67 30 0.34 30 0 C34.95 0 39.9 0 45 0 C45.16276042 3.58072917 45.32552083 7.16145833 45.48828125 10.7421875 C45.74158203 12.35480469 45.74158203 12.35480469 46 14 C46.99 14.66 47.98 15.32 49 16 C48.67 17.98 48.34 19.96 48 22 C50.94729537 23.15811388 50.94729537 23.15811388 54 23 C54.66 23.33 55.32 23.66 56 24 C55.505 26.475 55.505 26.475 55 29 C55.66 29 56.32 29 57 29 C57 28.01 57 27.02 57 26 C57.66 26 58.32 26 59 26 C59 28.97 59 31.94 59 35 C58.34 35 57.68 35 57 35 C57 33.68 57 32.36 57 31 C56.34 31 55.68 31 55 31 C55 31.99 55 32.98 55 34 C54.34 34 53.68 34 53 34 C53 32.35 53 30.7 53 29 C51.01508358 29.26676204 51.01508358 29.26676204 49 30 C48.505 31.485 48.505 31.485 48 33 C48.66 33 49.32 33 50 33 C50 32.34 50 31.68 50 31 C50.66 31 51.32 31 52 31 C52 31.99 52 32.98 52 34 C49.36 34 46.72 34 44 34 C44 33.34 44 32.68 44 32 C43.01 32 42.02 32 41 32 C41 32.99 41 33.98 41 35 C42.32 35.33 43.64 35.66 45 36 C45 37.32 45 38.64 45 40 C42.66666667 40 40.33333333 40 38 40 C37.67 39.01 37.34 38.02 37 37 C36.67 37.99 36.34 38.98 36 40 C35.34 40 34.68 40 34 40 C34 38.35 34 36.7 34 35 C34.66 35 35.32 35 36 35 C35.67 34.01 35.34 33.02 35 32 C32.525 32.495 32.525 32.495 30 33 C30 30.69 30 28.38 30 26 C33 27 33 27 34 29 C34.66 28.01 35.32 27.02 36 26 C36.66 26 37.32 26 38 26 C38.495 28.475 38.495 28.475 39 31 C39.99 29.02 40.98 27.04 42 25 C29.46 25 16.92 25 4 25 C3.34 26.32 2.68 27.64 2 29 C2.66 29 3.32 29 4 29 C4 28.01 4 27.02 4 26 C4.66 26 5.32 26 6 26 C6.33 27.65 6.66 29.3 7 31 C7.33 29.35 7.66 27.7 8 26 C8.99 26.33 9.98 26.66 11 27 C11.12375 28.11375 11.2475 29.2275 11.375 30.375 C11.6465813 34.03103677 11.6465813 34.03103677 14 36 C14 37.66666667 14 39.33333333 14 41 C12.741875 41.04125 11.48375 41.0825 10.1875 41.125 C9.47980469 41.14820313 8.77210937 41.17140625 8.04296875 41.1953125 C6 41 6 41 3 39 C1.515 39.495 1.515 39.495 0 40 C0 38.02 0 36.04 0 34 C-0.66 34 -1.32 34 -2 34 C-4 34 -6 34 -8 34 C-8 33.34 -8 32.68 -8 32 C-6.68 32.33 -5.36 32.66 -4 33 C-4.33 32.34 -4.66 31.68 -5 31 C-7.52733235 30.34444881 -7.52733235 30.34444881 -10 30 C-9.67 31.32 -9.34 32.64 -9 34 C-10.65 33.67 -12.3 33.34 -14 33 C-14 33.66 -14 34.32 -14 35 C-14.66 35 -15.32 35 -16 35 C-15.7322881 31.80753565 -15.2796193 28.9509588 -14 26 C-11.51368349 24.13945304 -9.07312697 23.34330427 -6 23 C-4.35 23.33 -2.7 23.66 -1 24 C-0.67 16.08 -0.34 8.16 0 0 Z " fill="#2D2D2E" transform="translate(49,8)"/>
<path d="M0 0 C0.66 0.33 1.32 0.66 2 1 C1.01 1.99 0.02 2.98 -1 4 C-0.01 4 0.98 4 2 4 C2.18636279 8.09998139 1.80382903 10.39234195 0 14 C-0.33083127 17.9699753 -0.09972674 20.58794404 2 24 C0 27 0 27 -2.3125 27.625 C-3.199375 27.74875 -4.08625 27.8725 -5 28 C-5.928125 28.185625 -6.85625 28.37125 -7.8125 28.5625 C-8.534375 28.706875 -9.25625 28.85125 -10 29 C-10.66 31.97 -11.32 34.94 -12 38 C-11.34 38 -10.68 38 -10 38 C-10 37.34 -10 36.68 -10 36 C-8.35 36.33 -6.7 36.66 -5 37 C-5.33 35.68 -5.66 34.36 -6 33 C-4.35 33 -2.7 33 -1 33 C-0.67 33.99 -0.34 34.98 0 36 C-1.32 35.67 -2.64 35.34 -4 35 C-4 35.66 -4 36.32 -4 37 C0.47883696 36.55296014 0.47883696 36.55296014 4 34 C5.10844919 37.32534757 4.84454356 39.62182575 4 43 C4.66 43 5.32 43 6 43 C6.495 42.01 6.495 42.01 7 41 C7.99 41.99 8.98 42.98 10 44 C-3.79816514 44.26422018 -3.79816514 44.26422018 -10 43 C-10.66 42.34 -11.32 41.68 -12 41 C-15.12814514 40.75639927 -15.12814514 40.75639927 -18.625 40.875 C-20.40777344 40.90207031 -20.40777344 40.90207031 -22.2265625 40.9296875 C-23.59941406 40.96449219 -23.59941406 40.96449219 -25 41 C-25.13277344 40.32453125 -25.26554687 39.6490625 -25.40234375 38.953125 C-25.57894531 38.06109375 -25.75554688 37.1690625 -25.9375 36.25 C-26.11152344 35.36828125 -26.28554688 34.4865625 -26.46484375 33.578125 C-26.92247191 31.37349297 -27.45390014 29.18439943 -28 27 C-23.38 26.67 -18.76 26.34 -14 26 C-14.33 24.35 -14.66 22.7 -15 21 C-14.53610896 14.74851592 -12.42790099 9.46102743 -8 5 C-5.47832646 3.04461399 -2.94630627 1.24876557 0 0 Z " fill="#242424" transform="translate(45,5)"/>
<path d="M0 0 C14.85 0 29.7 0 45 0 C45 1.32 45 2.64 45 4 C45.5671875 3.78085938 46.134375 3.56171875 46.71875 3.3359375 C50.58820369 2.76612069 52.82226894 5.14568363 55.875 7.3046875 C58.99459079 9.79347868 61.22026092 12.44052184 63 16 C63.44608045 20.36644137 63.4283238 24.0005778 61.6875 28.0625 C61.130625 28.701875 60.57375 29.34125 60 30 C59.01 30 58.02 30 57 30 C57 29.34 57 28.68 57 28 C56.34 28 55.68 28 55 28 C54.505 29.485 54.505 29.485 54 31 C53.34 30.34 52.68 29.68 52 29 C51.01 29.495 51.01 29.495 50 30 C48.4375 28.8125 48.4375 28.8125 47 27 C47.3125 24.3125 47.3125 24.3125 48 22 C47.01 21.34 46.02 20.68 45 20 C44.70703125 16.7421875 44.70703125 16.7421875 44.8125 12.875 C44.85310547 10.95300781 44.85310547 10.95300781 44.89453125 8.9921875 C44.92933594 8.00476562 44.96414062 7.01734375 45 6 C43.02 6 41.04 6 39 6 C40.32 5.67 41.64 5.34 43 5 C43 4.34 43 3.68 43 3 C42.01 3.33 41.02 3.66 40 4 C40 3.01 40 2.02 40 1 C38.35 1.66 36.7 2.32 35 3 C35.495 3.99 35.495 3.99 36 5 C32.37 5 28.74 5 25 5 C25.33 3.68 25.66 2.36 26 1 C25.34 1 24.68 1 24 1 C24 1.66 24 2.32 24 3 C20.74610012 5.16926659 19.86604043 5.24080049 16.11328125 5.1953125 C15.17548828 5.18886719 14.23769531 5.18242188 13.27148438 5.17578125 C11.80678711 5.15064453 11.80678711 5.15064453 10.3125 5.125 C9.32443359 5.11597656 8.33636719 5.10695313 7.31835938 5.09765625 C4.87866235 5.0740843 2.43945303 5.04118022 0 5 C0 3.35 0 1.7 0 0 Z " fill="#4B402E" transform="translate(49,2)"/>
<path d="M0 0 C4.95 0 9.9 0 15 0 C12.80516417 1.46322389 10.68038 2.74430366 8.375 4 C4.97179804 5.6051726 4.97179804 5.6051726 4 8 C3.49957854 10.91538029 3.49957854 10.91538029 4 14 C7.67882796 18.15351544 12.65872756 19.9534517 18 21 C22.34724305 21.22983175 26.65177205 21.18145619 31 21 C31 21.66 31 22.32 31 23 C29.84213989 23.00616333 29.84213989 23.00616333 28.66088867 23.01245117 C25.16897579 23.0453119 21.67882526 23.11594893 18.1875 23.1875 C16.97255859 23.19330078 15.75761719 23.19910156 14.50585938 23.20507812 C13.34248047 23.23408203 12.17910156 23.26308594 10.98046875 23.29296875 C9.90692139 23.3086792 8.83337402 23.32438965 7.72729492 23.34057617 C4.7654494 23.74721952 4.7654494 23.74721952 3.1262207 26.54418945 C2.75456787 27.35460693 2.38291504 28.16502441 2 29 C2.66 29 3.32 29 4 29 C4 28.01 4 27.02 4 26 C4.66 26 5.32 26 6 26 C6.33 27.65 6.66 29.3 7 31 C7.33 29.35 7.66 27.7 8 26 C8.99 26.33 9.98 26.66 11 27 C11.12375 28.11375 11.2475 29.2275 11.375 30.375 C11.6465813 34.03103677 11.6465813 34.03103677 14 36 C14 37.66666667 14 39.33333333 14 41 C12.741875 41.04125 11.48375 41.0825 10.1875 41.125 C9.47980469 41.14820313 8.77210937 41.17140625 8.04296875 41.1953125 C6 41 6 41 3 39 C1.515 39.495 1.515 39.495 0 40 C0 38.02 0 36.04 0 34 C-0.66 34 -1.32 34 -2 34 C-4 34 -6 34 -8 34 C-8 33.34 -8 32.68 -8 32 C-6.68 32.33 -5.36 32.66 -4 33 C-4.33 32.34 -4.66 31.68 -5 31 C-7.52733235 30.34444881 -7.52733235 30.34444881 -10 30 C-9.67 31.32 -9.34 32.64 -9 34 C-10.65 33.67 -12.3 33.34 -14 33 C-14 33.66 -14 34.32 -14 35 C-14.66 35 -15.32 35 -16 35 C-15.7322881 31.80753565 -15.2796193 28.9509588 -14 26 C-11.51368349 24.13945304 -9.07312697 23.34330427 -6 23 C-4.35 23.33 -2.7 23.66 -1 24 C-0.67 16.08 -0.34 8.16 0 0 Z " fill="#676768" transform="translate(49,8)"/>
<path d="M0 0 C1.6874269 0.00015917 3.37485866 0.00585622 5.06225586 0.01586914 C6.39189613 0.01799156 6.39189613 0.01799156 7.74839783 0.02015686 C10.59133215 0.02577324 13.43418892 0.03832848 16.27709961 0.05102539 C18.19962452 0.05603828 20.12215065 0.06060155 22.04467773 0.06469727 C26.7680151 0.07574798 31.49129419 0.09302356 36.21459961 0.11352539 C35.7440918 0.70649414 35.27358398 1.29946289 34.78881836 1.91040039 C32.92520983 4.51852747 32.11828935 7.05488319 31.21459961 10.11352539 C30.88459961 10.11352539 30.55459961 10.11352539 30.21459961 10.11352539 C30.21459961 7.47352539 30.21459961 4.83352539 30.21459961 2.11352539 C27.88384032 3.07218048 27.88384032 3.07218048 26.21459961 6.11352539 C24.89459961 4.79352539 23.57459961 3.47352539 22.21459961 2.11352539 C22.21459961 4.42352539 22.21459961 6.73352539 22.21459961 9.11352539 C22.87459961 9.11352539 23.53459961 9.11352539 24.21459961 9.11352539 C24.54459961 8.12352539 24.87459961 7.13352539 25.21459961 6.11352539 C25.21459961 6.77352539 25.21459961 7.43352539 25.21459961 8.11352539 C26.20459961 7.78352539 27.19459961 7.45352539 28.21459961 7.11352539 C28.21459961 8.43352539 28.21459961 9.75352539 28.21459961 11.11352539 C27.55459961 11.11352539 26.89459961 11.11352539 26.21459961 11.11352539 C26.70959961 14.08352539 26.70959961 14.08352539 27.21459961 17.11352539 C20.28459961 17.11352539 13.35459961 17.11352539 6.21459961 17.11352539 C6.21459961 16.45352539 6.21459961 15.79352539 6.21459961 15.11352539 C5.22459961 14.78352539 4.23459961 14.45352539 3.21459961 14.11352539 C3.21459961 13.12352539 3.21459961 12.13352539 3.21459961 11.11352539 C3.01387356 8.39844141 2.64981305 5.81184874 2.21459961 3.11352539 C1.55459961 2.78352539 0.89459961 2.45352539 0.21459961 2.11352539 C0.21459961 4.42352539 0.21459961 6.73352539 0.21459961 9.11352539 C-1.78540039 7.11352539 -1.78540039 7.11352539 -1.91040039 4.48852539 C-1.86915039 3.70477539 -1.82790039 2.92102539 -1.78540039 2.11352539 C-2.44540039 2.11352539 -3.10540039 2.11352539 -3.78540039 2.11352539 C-3.78540039 3.10352539 -3.78540039 4.09352539 -3.78540039 5.11352539 C-4.44540039 5.11352539 -5.10540039 5.11352539 -5.78540039 5.11352539 C-4.66230655 0.13982409 -4.66230655 0.13982409 0 0 Z " fill="#4B4C4C" transform="translate(56.785400390625,31.886474609375)"/>
<path d="M0 0 C4.95 0 9.9 0 15 0 C15.16276042 3.58072917 15.32552083 7.16145833 15.48828125 10.7421875 C15.65714844 11.81726563 15.82601562 12.89234375 16 14 C16.99 14.66 17.98 15.32 19 16 C18.67 17.98 18.34 19.96 18 22 C20.94729537 23.15811388 20.94729537 23.15811388 24 23 C24.66 23.33 25.32 23.66 26 24 C25.67 25.65 25.34 27.3 25 29 C25.66 29 26.32 29 27 29 C27 28.01 27 27.02 27 26 C27.66 26 28.32 26 29 26 C29 28.97 29 31.94 29 35 C28.34 35 27.68 35 27 35 C27 33.68 27 32.36 27 31 C26.34 31 25.68 31 25 31 C25 31.99 25 32.98 25 34 C24.34 34 23.68 34 23 34 C23 32.35 23 30.7 23 29 C21.01508358 29.26676204 21.01508358 29.26676204 19 30 C18.67 30.99 18.34 31.98 18 33 C18.66 33 19.32 33 20 33 C20 32.34 20 31.68 20 31 C20.66 31 21.32 31 22 31 C22 31.99 22 32.98 22 34 C19.36 34 16.72 34 14 34 C14 33.34 14 32.68 14 32 C13.01 32 12.02 32 11 32 C11 32.99 11 33.98 11 35 C12.32 35.33 13.64 35.66 15 36 C15 37.32 15 38.64 15 40 C12.66666667 40 10.33333333 40 8 40 C7.505 38.515 7.505 38.515 7 37 C6.67 37.99 6.34 38.98 6 40 C5.34 40 4.68 40 4 40 C4 38.35 4 36.7 4 35 C4.66 35 5.32 35 6 35 C5.505 33.515 5.505 33.515 5 32 C2.525 32.495 2.525 32.495 0 33 C0 30.69 0 28.38 0 26 C3 27 3 27 4 29 C4.66 28.01 5.32 27.02 6 26 C6.66 26 7.32 26 8 26 C8.33 27.65 8.66 29.3 9 31 C9.495 29.9275 9.99 28.855 10.5 27.75 C10.7784375 27.14671875 11.056875 26.5434375 11.34375 25.921875 C12.21542924 23.70757164 12.21542924 23.70757164 12 20 C9.36 20 6.72 20 4 20 C4.804375 19.38125 5.60875 18.7625 6.4375 18.125 C9.03874519 16.25835959 9.03874519 16.25835959 10 14 C10.99 14 11.98 14 13 14 C13 11.69 13 9.38 13 7 C12.01 7 11.02 7 10 7 C9.1028125 6.071875 9.1028125 6.071875 8.1875 5.125 C5.61575411 2.62673257 3.42169383 1.93318923 0 1 C0 0.67 0 0.34 0 0 Z " fill="#575756" transform="translate(79,8)"/>
<path d="M0 0 C14.37255792 -0.12713885 28.65299359 0.12000837 43 1 C43 1.33 43 1.66 43 2 C29.47 2 15.94 2 2 2 C2 3.65 2 5.3 2 7 C5.43782031 6.86116581 8.87516029 6.71272946 12.3125 6.5625 C13.77719727 6.50352539 13.77719727 6.50352539 15.27148438 6.44335938 C16.20927734 6.40146484 17.14707031 6.35957031 18.11328125 6.31640625 C18.97735596 6.27974854 19.84143066 6.24309082 20.73168945 6.20532227 C23.1647826 6.07252646 23.1647826 6.07252646 26 5 C26 4.34 26 3.68 26 3 C26.66 3 27.32 3 28 3 C28 3.99 28 4.98 28 6 C30.64 6 33.28 6 36 6 C36 5.01 36 4.02 36 3 C36.99 3.33 37.98 3.66 39 4 C39.99 3.67 40.98 3.34 42 3 C42.495 3.99 42.495 3.99 43 5 C43.66 5 44.32 5 45 5 C45 5.66 45 6.32 45 7 C41.7 7.66 38.4 8.32 35 9 C37.31 10.32 39.62 11.64 42 13 C42 13.66 42 14.32 42 15 C42.99 15 43.98 15 45 15 C45 16.65 45 18.3 45 20 C44.505 18.02 44.505 18.02 44 16 C42.35 16 40.7 16 39 16 C39.495 18.97 39.495 18.97 40 22 C38.35 21.67 36.7 21.34 35 21 C34.505 19.515 34.505 19.515 34 18 C35.65 16.68 37.3 15.36 39 14 C31.16312937 8.66425829 23.10444175 9.62754556 14 10 C14 9.67 14 9.34 14 9 C10.04 8.67 6.08 8.34 2 8 C2 15.92 2 23.84 2 32 C1.01 32.495 1.01 32.495 0 33 C-2 29.25 -2 29.25 -2 27 C-2.33 26.34 -2.66 25.68 -3 25 C-3.26710964 20.90431885 -2.85170149 18.58767164 -1 15 C-0.83249586 12.33290931 -0.83249586 12.33290931 -1 10 C-1.99 10.495 -1.99 10.495 -3 11 C-3.33 10.01 -3.66 9.02 -4 8 C-3.34 7.34 -2.68 6.68 -2 6 C-10.28962526 10.67619886 -13.57999614 15.00917069 -16.25 24 C-16.4975 24.99 -16.745 25.98 -17 27 C-17.33 27 -17.66 27 -18 27 C-18.63944151 21.88446792 -18.56936085 18.10130961 -15.5 13.8125 C-11.35667496 8.90334711 -6.45723983 4.2483997 0 3 C0 2.01 0 1.02 0 0 Z " fill="#1D1C1B" transform="translate(47,0)"/>
<path d="M0 0 C0.66 0.33 1.32 0.66 2 1 C0.515 2.485 0.515 2.485 -1 4 C-0.01 4 0.98 4 2 4 C2.18636279 8.09998139 1.80382903 10.39234195 0 14 C-0.33083127 17.9699753 -0.09972674 20.58794404 2 24 C1.34 24.99 0.68 25.98 0 27 C-2.625 27.1875 -2.625 27.1875 -5 27 C-7.88941312 22.485292 -9.77233468 19.53506523 -9 14 C-8.34 13.34 -7.68 12.68 -7 12 C-6.01 14.97 -5.02 17.94 -4 21 C-4.48578543 17.87709365 -4.9986012 15.00419641 -6 12 C-6.33 11.01 -6.66 10.02 -7 9 C-10.24849977 10.72226496 -10.24849977 10.72226496 -11 14 C-11.39741243 19.26571469 -10.6667422 22.4443154 -8 27 C-10.65356255 26.02702707 -11.80987991 25.30781348 -13.3125 22.875 C-14.40597705 18.30227781 -14.11019651 14.32088495 -12.09375 10.10546875 C-9.12253683 5.49808076 -5.06477773 2.14666076 0 0 Z " fill="#8D7D5C" transform="translate(45,5)"/>
<path d="M0 0 C14.85 0 29.7 0 45 0 C45 1.65 45 3.3 45 5 C44.34 5 43.68 5 43 5 C43 4.34 43 3.68 43 3 C42.01 3.33 41.02 3.66 40 4 C40 3.01 40 2.02 40 1 C38.35 1.66 36.7 2.32 35 3 C35.495 3.99 35.495 3.99 36 5 C32.37 5 28.74 5 25 5 C25.33 3.68 25.66 2.36 26 1 C25.34 1 24.68 1 24 1 C24 1.66 24 2.32 24 3 C20.74610012 5.16926659 19.86604043 5.24080049 16.11328125 5.1953125 C15.17548828 5.18886719 14.23769531 5.18242188 13.27148438 5.17578125 C11.80678711 5.15064453 11.80678711 5.15064453 10.3125 5.125 C9.32443359 5.11597656 8.33636719 5.10695313 7.31835938 5.09765625 C4.87866235 5.0740843 2.43945303 5.04118022 0 5 C0 3.35 0 1.7 0 0 Z " fill="#CAB88F" transform="translate(49,2)"/>
<path d="M0 0 C3.59199301 0.99777583 4.93391293 1.91783769 7.3125 4.875 C9 8 9 8 9 12 C9.66 12 10.32 12 11 12 C10.505 12.8971875 10.505 12.8971875 10 13.8125 C8.79212012 16.05386471 8.79212012 16.05386471 9 19 C8.05273046 20.69719127 7.05771739 22.36935236 6 24 C5.34 23.34 4.68 22.68 4 22 C3.34 22.33 2.68 22.66 2 23 C0.4375 21.8125 0.4375 21.8125 -1 20 C-0.66666667 18.33333333 -0.33333333 16.66666667 0 15 C-1.33378575 13.1645201 -1.33378575 13.1645201 -3 12 C-2.690625 11.319375 -2.38125 10.63875 -2.0625 9.9375 C-0.86629351 6.63034088 -0.40994603 3.48454122 0 0 Z " fill="#332C21" transform="translate(97,9)"/>
<path d="M0 0 C1.65 0 3.3 0 5 0 C5.495 2.97 5.495 2.97 6 6 C5.01 6 4.02 6 3 6 C2.566875 6.9590625 2.566875 6.9590625 2.125 7.9375 C1 10 1 10 -1 11 C0.98 11.33 2.96 11.66 5 12 C5 13.32 5 14.64 5 16 C-7.21 16 -19.42 16 -32 16 C-32 15.67 -32 15.34 -32 15 C-23.42 15 -14.84 15 -6 15 C-6 14.34 -6 13.68 -6 13 C-6.57363281 13.15984375 -7.14726563 13.3196875 -7.73828125 13.484375 C-14.96859242 15.1327361 -21.22707117 13.68995755 -28 11 C-26.0625 10.4375 -26.0625 10.4375 -24 10 C-23.67 10.33 -23.34 10.66 -23 11 C-20.21900528 11.10048227 -17.46825072 11.13870954 -14.6875 11.125 C-13.91470703 11.12886719 -13.14191406 11.13273437 -12.34570312 11.13671875 C-11.59611328 11.13542969 -10.84652344 11.13414063 -10.07421875 11.1328125 C-9.38932373 11.13168457 -8.70442871 11.13055664 -7.9987793 11.12939453 C-5.89695926 10.99332947 -4.02372945 10.57012045 -2 10 C-2 9.34 -2 8.68 -2 8 C-1.34 8 -0.68 8 0 8 C0 5.36 0 2.72 0 0 Z " fill="#876A37" transform="translate(86,16)"/>
<path d="M0 0 C4.95 0.33 9.9 0.66 15 1 C15 2.32 15 3.64 15 5 C13.35 5 11.7 5 10 5 C10 5.66 10 6.32 10 7 C10.66 7.33 11.32 7.66 12 8 C11.34 8 10.68 8 10 8 C10 9.32 10 10.64 10 12 C10.99 12 11.98 12 13 12 C13 12.66 13 13.32 13 14 C7.5388601 13.64766839 7.5388601 13.64766839 5 13 C3.5 10.9375 3.5 10.9375 3 9 C2.67 9.99 2.34 10.98 2 12 C0.68 12 -0.64 12 -2 12 C-2.05422947 10.5629191 -2.09289723 9.12524538 -2.125 7.6875 C-2.14820312 6.88699219 -2.17140625 6.08648437 -2.1953125 5.26171875 C-2 3 -2 3 0 0 Z " fill="#343537" transform="translate(111,31)"/>
<path d="M0 0 C4.95 0 9.9 0 15 0 C12.80516417 1.46322389 10.68038 2.74430366 8.375 4 C4.97179804 5.6051726 4.97179804 5.6051726 4 8 C3.41557037 10.87237733 3.41557037 10.87237733 4 14 C5.82953247 16.00555163 7.78758228 17.38677875 10 19 C10 19.33 10 19.66 10 20 C8.02 20 6.04 20 4 20 C3.67 21.32 3.34 22.64 3 24 C2.01 24 1.02 24 0 24 C0 16.08 0 8.16 0 0 Z " fill="#E8E8E5" transform="translate(49,8)"/>
<path d="M0 0 C1.41623216 -0.05447047 2.83308191 -0.09300508 4.25 -0.125 C5.03890625 -0.14820313 5.8278125 -0.17140625 6.640625 -0.1953125 C9.20731941 0.0171622 10.7916067 0.71345895 13 2 C11.75 3.5625 11.75 3.5625 10 5 C7.67511119 4.7181953 6.09107165 4.04553582 4 3 C2.9171875 4.1446875 2.9171875 4.1446875 1.8125 5.3125 C-0.69790967 7.71133591 -2.96808302 9.35410221 -6 11 C-5.67 11.66 -5.34 12.32 -5 13 C-7.3125 13.6875 -7.3125 13.6875 -10 14 C-11.8125 12.9375 -11.8125 12.9375 -13 11 C-13.5 8 -13.5 8 -13 5 C-10.5 3.125 -10.5 3.125 -8 2 C-8 3.32 -8 4.64 -8 6 C-7.608125 5.54625 -7.21625 5.0925 -6.8125 4.625 C-4.69167513 2.72357081 -2.66957765 1.93795972 0 1 C0 0.67 0 0.34 0 0 Z " fill="#1B1C1D" transform="translate(70,11)"/>
<path d="M0 0 C4.95 0 9.9 0 15 0 C15 7.92 15 15.84 15 24 C14.01 24 13.02 24 12 24 C12 22.68 12 21.36 12 20 C9.36 20 6.72 20 4 20 C4.804375 19.38125 5.60875 18.7625 6.4375 18.125 C9.03874519 16.25835959 9.03874519 16.25835959 10 14 C10.99 14 11.98 14 13 14 C13 11.69 13 9.38 13 7 C12.01 7 11.02 7 10 7 C9.1028125 6.071875 9.1028125 6.071875 8.1875 5.125 C5.61575411 2.62673257 3.42169383 1.93318923 0 1 C0 0.67 0 0.34 0 0 Z " fill="#AE8948" transform="translate(79,8)"/>
<path d="M0 0 C0.66 0 1.32 0 2 0 C2 0.99 2 1.98 2 3 C4.64 3 7.28 3 10 3 C10 2.01 10 1.02 10 0 C10.99 0.33 11.98 0.66 13 1 C13.99 0.67 14.98 0.34 16 0 C16.33 0.66 16.66 1.32 17 2 C17.66 2 18.32 2 19 2 C19 2.66 19 3.32 19 4 C15.7 4.66 12.4 5.32 9 6 C11.31 7.32 13.62 8.64 16 10 C16 10.66 16 11.32 16 12 C16.99 12 17.98 12 19 12 C19 13.65 19 15.3 19 17 C18.67 15.68 18.34 14.36 18 13 C16.35 13 14.7 13 13 13 C13.33 14.98 13.66 16.96 14 19 C12.35 18.67 10.7 18.34 9 18 C8.67 17.01 8.34 16.02 8 15 C9.65 13.68 11.3 12.36 13 11 C5.16312937 5.66425829 -2.89555825 6.62754556 -12 7 C-9.3139714 5.20931427 -7.3373411 4.33944209 -4.3125 3.375 C-3.50425781 3.11460938 -2.69601563 2.85421875 -1.86328125 2.5859375 C-1.24839844 2.39257812 -0.63351563 2.19921875 0 2 C0 1.34 0 0.68 0 0 Z " fill="#312B20" transform="translate(73,3)"/>
<path d="M0 0 C3 1 3 1 4 3 C4.66 2.01 5.32 1.02 6 0 C6.66 0 7.32 0 8 0 C8.33 1.65 8.66 3.3 9 5 C9.66 3.35 10.32 1.7 11 0 C11.99 0.33 12.98 0.66 14 1 C15.1875 4.5625 15.1875 4.5625 16 8 C15.34 8 14.68 8 14 8 C14 7.34 14 6.68 14 6 C13.01 6 12.02 6 11 6 C11 6.99 11 7.98 11 9 C12.32 9.33 13.64 9.66 15 10 C15 11.32 15 12.64 15 14 C12.66666667 14 10.33333333 14 8 14 C7.67 13.01 7.34 12.02 7 11 C6.67 11.99 6.34 12.98 6 14 C5.34 14 4.68 14 4 14 C4 12.35 4 10.7 4 9 C4.66 9 5.32 9 6 9 C5.67 8.01 5.34 7.02 5 6 C3.35 6.33 1.7 6.66 0 7 C0 4.69 0 2.38 0 0 Z " fill="#6D6E6F" transform="translate(79,34)"/>
<path d="M0 0 C0.99 0.33 1.98 0.66 3 1 C3.12375 2.11375 3.2475 3.2275 3.375 4.375 C3.6465813 8.03103677 3.6465813 8.03103677 6 10 C6 11.66666667 6 13.33333333 6 15 C4.741875 15.04125 3.48375 15.0825 2.1875 15.125 C1.47980469 15.14820313 0.77210937 15.17140625 0.04296875 15.1953125 C-2 15 -2 15 -5 13 C-5.99 13.33 -6.98 13.66 -8 14 C-8.22036864 10.14354879 -7.60355101 7.50776784 -6 4 C-5.34 4 -4.68 4 -4 4 C-4 4.99 -4 5.98 -4 7 C-3.34 7 -2.68 7 -2 7 C-1.34 4.69 -0.68 2.38 0 0 Z " fill="#2B2C2D" transform="translate(57,34)"/>
<path d="M0 0 C0.495 0.99 0.495 0.99 1 2 C-1.15503279 1.53820726 -2.85507072 1.08799278 -4.75 -0.0625 C-8.2715935 -1.52983062 -11.19219182 -1.2417656 -15 -1 C-15.99 -0.34 -16.98 0.32 -18 1 C-18.825 1.474375 -19.65 1.94875 -20.5 2.4375 C-22.68806893 3.80504308 -24.28096655 5.10001566 -26 7 C-25.67 5.02 -25.34 3.04 -25 1 C-26.65 1.66 -28.3 2.32 -30 3 C-30 5.31 -30 7.62 -30 10 C-30.66 9.67 -31.32 9.34 -32 9 C-32.4375 6.375 -32.4375 6.375 -32 3 C-23.98383992 -6.60614225 -10.02153323 -6.55254096 0 0 Z " fill="#E6DFCC" transform="translate(86,13)"/>
<path d="M0 0 C1.65 0 3.3 0 5 0 C5.33 0.99 5.66 1.98 6 3 C4.68 2.67 3.36 2.34 2 2 C2 2.66 2 3.32 2 4 C6.47883696 3.55296014 6.47883696 3.55296014 10 1 C11.10844919 4.32534757 10.84454356 6.62182575 10 10 C10.66 10 11.32 10 12 10 C12.33 9.34 12.66 8.68 13 8 C13.99 8.99 14.98 9.98 16 11 C9.56744599 11.12086218 3.38226945 10.82351864 -3 10 C-2.67 7.69 -2.34 5.38 -2 3 C-1.01 3.33 -0.02 3.66 1 4 C0.67 2.68 0.34 1.36 0 0 Z " fill="#272420" transform="translate(39,38)"/>
<path d="M0 0 C0.99 0.33 1.98 0.66 3 1 C2.01 1.78375 1.02 2.5675 0 3.375 C-1.485 4.674375 -1.485 4.674375 -3 6 C-3 6.66 -3 7.32 -3 8 C-2.34 7.34 -1.68 6.68 -1 6 C-0.731875 7.134375 -0.46375 8.26875 -0.1875 9.4375 C0.4003125 11.2009375 0.4003125 11.2009375 1 13 C1.99 13.33 2.98 13.66 4 14 C7 15 7 15 8 16 C14.47353514 16.64487323 19.239122 15.93922347 25 13 C25.99 12.67 26.98 12.34 28 12 C28 12.66 28 13.32 28 14 C27.34 14 26.68 14 26 14 C26 14.66 26 15.32 26 16 C22.17045513 18.52951516 18.17660793 18.344563 13.75 18.3125 C12.98800293 18.30903564 12.22600586 18.30557129 11.44091797 18.30200195 C5.38683785 18.18450372 0.13724069 17.68801139 -4.6640625 13.57421875 C-6 12 -6 12 -6.5 9.125 C-5.84347846 5.02174038 -4.10220196 3.64822119 -1 1 C-0.67 0.67 -0.34 0.34 0 0 Z " fill="#C5AF84" transform="translate(58,10)"/>
<path d="M0 0 C0.87454834 0.00523682 1.74909668 0.01047363 2.65014648 0.01586914 C3.59438477 0.0190918 4.53862305 0.02231445 5.51147461 0.02563477 C6.50469727 0.03401367 7.49791992 0.04239258 8.52124023 0.05102539 C9.51833008 0.05553711 10.51541992 0.06004883 11.54272461 0.06469727 C14.01478872 0.07652532 16.48673541 0.0930069 18.95874023 0.11352539 C18.95874023 0.77352539 18.95874023 1.43352539 18.95874023 2.11352539 C17.30874023 2.11352539 15.65874023 2.11352539 13.95874023 2.11352539 C13.95874023 4.09352539 13.95874023 6.07352539 13.95874023 8.11352539 C13.29874023 8.11352539 12.63874023 8.11352539 11.95874023 8.11352539 C11.95874023 6.13352539 11.95874023 4.15352539 11.95874023 2.11352539 C11.29874023 2.11352539 10.63874023 2.11352539 9.95874023 2.11352539 C9.62874023 3.10352539 9.29874023 4.09352539 8.95874023 5.11352539 C7.96874023 4.12352539 6.97874023 3.13352539 5.95874023 2.11352539 C5.95874023 4.42352539 5.95874023 6.73352539 5.95874023 9.11352539 C5.62874023 9.11352539 5.29874023 9.11352539 4.95874023 9.11352539 C4.83499023 8.14415039 4.71124023 7.17477539 4.58374023 6.17602539 C4.37749023 5.16540039 4.17124023 4.15477539 3.95874023 3.11352539 C3.29874023 2.78352539 2.63874023 2.45352539 1.95874023 2.11352539 C1.95874023 4.42352539 1.95874023 6.73352539 1.95874023 9.11352539 C-0.04125977 7.11352539 -0.04125977 7.11352539 -0.16625977 4.48852539 C-0.12500977 3.70477539 -0.08375977 2.92102539 -0.04125977 2.11352539 C-0.70125977 2.11352539 -1.36125977 2.11352539 -2.04125977 2.11352539 C-2.04125977 3.10352539 -2.04125977 4.09352539 -2.04125977 5.11352539 C-2.70125977 5.11352539 -3.36125977 5.11352539 -4.04125977 5.11352539 C-2.9233045 0.16258062 -2.9233045 0.16258062 0 0 Z " fill="#313234" transform="translate(55.041259765625,31.886474609375)"/>
<path d="M0 0 C0.309375 0.639375 0.61875 1.27875 0.9375 1.9375 C1.8345163 3.93610821 1.8345163 3.93610821 3 5 C3.23287008 6.68183948 3.41264166 8.3712416 3.5625 10.0625 C3.64628906 10.98160156 3.73007812 11.90070312 3.81640625 12.84765625 C3.87699219 13.55792969 3.93757813 14.26820312 4 15 C1.38952199 13.694761 1.31933577 12.64173426 0.375 9.9375 C0.11460938 9.20402344 -0.14578125 8.47054688 -0.4140625 7.71484375 C-0.60742188 7.14894531 -0.80078125 6.58304688 -1 6 C-1.33353284 10.78063737 -0.49152719 12.99189105 2 17 C1.67 17.99 1.34 18.98 1 20 C0.67 19.34 0.34 18.68 0 18 C-0.66 17.690625 -1.32 17.38125 -2 17.0625 C-4 16 -4 16 -5 13 C-5.41296625 5.42895204 -5.41296625 5.42895204 -3 2 C-2.01 1.34 -1.02 0.68 0 0 Z " fill="#232220" transform="translate(38,13)"/>
<path d="M0 0 C1.65 0 3.3 0 5 0 C5.33 1.98 5.66 3.96 6 6 C5.01 6 4.02 6 3 6 C2.566875 6.9590625 2.566875 6.9590625 2.125 7.9375 C1 10 1 10 -1 11 C1.97 11.495 1.97 11.495 5 12 C5 12.99 5 13.98 5 15 C2.03 15 -0.94 15 -4 15 C-4 14.01 -4 13.02 -4 12 C-4.66 11.67 -5.32 11.34 -6 11 C-4.68 10.67 -3.36 10.34 -2 10 C-2 9.34 -2 8.68 -2 8 C-1.34 8 -0.68 8 0 8 C0 5.36 0 2.72 0 0 Z " fill="#443926" transform="translate(86,16)"/>
<path d="M0 0 C6.27 0 12.54 0 19 0 C19 1.65 19 3.3 19 5 C18.34 5 17.68 5 17 5 C17 4.34 17 3.68 17 3 C16.01 3.33 15.02 3.66 14 4 C14 3.01 14 2.02 14 1 C12.35 1.66 10.7 2.32 9 3 C9.33 3.66 9.66 4.32 10 5 C6.37 5 2.74 5 -1 5 C-0.67 3.35 -0.34 1.7 0 0 Z " fill="#CEAC69" transform="translate(75,2)"/>
<path d="M0 0 C1.73662334 3.22515763 2.8905928 6.51329166 4 10 C4.33 7.03 4.66 4.06 5 1 C5.33 1 5.66 1 6 1 C6 3.31 6 5.62 6 8 C6.66 8 7.32 8 8 8 C8.66 9.32 9.32 10.64 10 12 C9.01 13.485 9.01 13.485 8 15 C5.375 15.1875 5.375 15.1875 3 15 C0.07522848 10.43004449 -1.64993148 7.58941071 -1 2 C-0.67 1.34 -0.34 0.68 0 0 Z " fill="#665639" transform="translate(37,17)"/>
<path d="M0 0 C0.66 0 1.32 0 2 0 C2.33 0.99 2.66 1.98 3 3 C3.66 2.01 4.32 1.02 5 0 C5.66 0 6.32 0 7 0 C7.33 0.99 7.66 1.98 8 3 C8.66 2.01 9.32 1.02 10 0 C10.66 0 11.32 0 12 0 C11.34 2.97 10.68 5.94 10 9 C9.01 9 8.02 9 7 9 C6.67 8.34 6.34 7.68 6 7 C5.01 8.485 5.01 8.485 4 10 C3.34 10 2.68 10 2 10 C1.34 6.7 0.68 3.4 0 0 Z " fill="#F2F3F3" transform="translate(21,34)"/>
<path d="M0 0 C0.33 0 0.66 0 1 0 C1 5.94 1 11.88 1 18 C0.34 18.33 -0.32 18.66 -1 19 C-3 15.25 -3 15.25 -3 13 C-3.33 12.34 -3.66 11.68 -4 11 C-4.43693011 7.06762903 -4.30734585 5.45606158 -2.0625 2.125 C-1.0415625 1.073125 -1.0415625 1.073125 0 0 Z " fill="#201F1F" transform="translate(48,14)"/>
<path d="M0 0 C0.33 0 0.66 0 1 0 C1 1.65 1 3.3 1 5 C0.34 5 -0.32 5 -1 5 C-0.67 8.3 -0.34 11.6 0 15 C-4.29 14.34 -8.58 13.68 -13 13 C-12.67 12.34 -12.34 11.68 -12 11 C-4.25 11.875 -4.25 11.875 -2 13 C-2 12.34 -2 11.68 -2 11 C-2.99 11 -3.98 11 -5 11 C-5 8.69 -5 6.38 -5 4 C-4.0409375 3.8453125 -4.0409375 3.8453125 -3.0625 3.6875 C-2.381875 3.460625 -1.70125 3.23375 -1 3 C-0.67 2.01 -0.34 1.02 0 0 Z " fill="#1C1D1D" transform="translate(126,32)"/>
<path d="M0 0 C4.62 0 9.24 0 14 0 C11 2 11 2 7.5 3.75 C3.85315446 5.78544868 2.51524825 8.078181 1 12 C0.67 12 0.34 12 0 12 C0 8.04 0 4.08 0 0 Z " fill="#FCFCFC" transform="translate(50,8)"/>
<path d="M0 0 C1.32 0.33 2.64 0.66 4 1 C3.67 1.33 3.34 1.66 3 2 C4.65 2 6.3 2 8 2 C8 2.66 8 3.32 8 4 C3.25 5.125 3.25 5.125 1 4 C1 4.66 1 5.32 1 6 C-3.95 8.475 -3.95 8.475 -9 11 C-9.66 10.01 -10.32 9.02 -11 8 C-10.37351563 7.67386719 -9.74703125 7.34773438 -9.1015625 7.01171875 C-7.87566406 6.35623047 -7.87566406 6.35623047 -6.625 5.6875 C-5.81289062 5.25824219 -5.00078125 4.82898438 -4.1640625 4.38671875 C-1.73165957 3.03221276 -1.73165957 3.03221276 0 0 Z " fill="#E1DFD8" transform="translate(74,13)"/>
<path d="M0 0 C5.0640075 0.99979602 10.29485546 0.62147072 15.43359375 0.48046875 C15.43359375 1.14046875 15.43359375 1.80046875 15.43359375 2.48046875 C6.19359375 2.81046875 -3.04640625 3.14046875 -12.56640625 3.48046875 C-12.23640625 2.16046875 -11.90640625 0.84046875 -11.56640625 -0.51953125 C-7.17060739 -1.61848097 -4.3075023 -1.2511069 0 0 Z " fill="#C8A051" transform="translate(64.56640625,28.51953125)"/>
<path d="M0 0 C4.62 0 9.24 0 14 0 C14 2.31 14 4.62 14 7 C12.68 7 11.36 7 10 7 C8.66666667 5.66666667 7.33333333 4.33333333 6 3 C2.86649283 1.73215876 2.86649283 1.73215876 0 1 C0 0.67 0 0.34 0 0 Z " fill="#C59D4D" transform="translate(79,8)"/>
<path d="M0 0 C1.10470134 3.31410403 0.69905409 4.67949308 0 8 C0.33 8.33 0.66 8.66 1 9 C1.66 8.34 2.32 7.68 3 7 C3.6875 8.8125 3.6875 8.8125 4 11 C2.5625 12.75 2.5625 12.75 1 14 C0.67 13.34 0.34 12.68 0 12 C-0.99 12.495 -0.99 12.495 -2 13 C-3.5625 11.8125 -3.5625 11.8125 -5 10 C-4.88445309 5.60921741 -2.83848733 3.20474376 0 0 Z " fill="#655538" transform="translate(101,19)"/>
<path d="M0 0 C1.61949011 2.57213134 2.04408751 3.67669159 1.625 6.75 C1.41875 7.4925 1.2125 8.235 1 9 C1.66 9 2.32 9 3 9 C3.33 8.34 3.66 7.68 4 7 C4.99 7.99 5.98 8.98 7 10 C3.7 10 0.4 10 -3 10 C-3 7 -3 7 -2 5 C-3.98 5 -5.96 5 -8 5 C-7.67 4.34 -7.34 3.68 -7 3 C-5 2.66666667 -3 2.33333333 -1 2 C-0.67 1.34 -0.34 0.68 0 0 Z " fill="#1E1E1E" transform="translate(48,39)"/>
<path d="M0 0 C4.62 0 9.24 0 14 0 C12.515 1.98 12.515 1.98 11 4 C10.27648573 5.98014432 9.59734611 7.97821315 9 10 C8.67 10 8.34 10 8 10 C8 7.36 8 4.72 8 2 C5.66924071 2.95865509 5.66924071 2.95865509 4 6 C2.62437146 4.71034824 1.29233607 3.37310707 0 2 C0 1.34 0 0.68 0 0 Z " fill="#1E1E1E" transform="translate(79,32)"/>
<path d="M0 0 C0.88429688 0.11859375 1.76859375 0.2371875 2.6796875 0.359375 C3.56914063 0.46765625 4.45859375 0.5759375 5.375 0.6875 C7.5546875 1.109375 7.5546875 1.109375 8.5546875 2.109375 C10.60865476 1.70007514 10.60865476 1.70007514 12.5546875 1.109375 C12.2246875 2.099375 11.8946875 3.089375 11.5546875 4.109375 C8.59813841 5.25363225 5.63715773 5.27315728 2.4921875 5.296875 C1.20634766 5.31814453 1.20634766 5.31814453 -0.10546875 5.33984375 C-2.4453125 5.109375 -2.4453125 5.109375 -5.4453125 3.109375 C-3.66900753 0.82723484 -2.95312128 0.13208849 0 0 Z " fill="#222324" transform="translate(68.4453125,21.890625)"/>
<path d="M0 0 C1.98 1.65 3.96 3.3 6 5 C5.01 5.495 5.01 5.495 4 6 C4.33 7.98 4.66 9.96 5 12 C3.68 12 2.36 12 1 12 C1 11.34 1 10.68 1 10 C0.01 9.67 -0.98 9.34 -2 9 C-2 5.61976483 -1.12544378 3.16531063 0 0 Z " fill="#2A2B2B" transform="translate(62,37)"/>
<path d="M0 0 C0.99 0.33 1.98 0.66 3 1 C3.12375 2.11375 3.2475 3.2275 3.375 4.375 C3.6465813 8.03103677 3.6465813 8.03103677 6 10 C6 11.33333333 6 12.66666667 6 14 C4.33388095 14.042721 2.66617115 14.04063832 1 14 C0 13 0 13 -0.09765625 10.05859375 C-0.08605469 8.86363281 -0.07445312 7.66867188 -0.0625 6.4375 C-0.05347656 5.23996094 -0.04445312 4.04242188 -0.03515625 2.80859375 C-0.02355469 1.88175781 -0.01195312 0.95492187 0 0 Z " fill="#9FA0A1" transform="translate(57,34)"/>
<path d="M0 0 C-2.44200471 2.05128396 -4.51575167 3.21182658 -7.5 4.4375 C-10.85241605 5.93411431 -12.63379755 7.25520516 -15 10 C-14.67 8.02 -14.34 6.04 -14 4 C-14.66 3.67 -15.32 3.34 -16 3 C-10.9749232 -0.3500512 -5.9145821 -0.11829164 0 0 Z " fill="#423827" transform="translate(75,10)"/>
<path d="M0 0 C5.28 0 10.56 0 16 0 C15.67 1.32 15.34 2.64 15 4 C14.34 3.34 13.68 2.68 13 2 C12.67 2.33 12.34 2.66 12 3 C9.66702567 3.04092937 7.33294775 3.04241723 5 3 C5 2.34 5 1.68 5 1 C4.01 1 3.02 1 2 1 C2 2.32 2 3.64 2 5 C1.34 5 0.68 5 0 5 C0 3.35 0 1.7 0 0 Z " fill="#EAD8AD" transform="translate(49,2)"/>
<path d="M0 0 C0 2.83967231 -0.40267181 5.23735711 -1 8 C-0.360625 8.12375 0.27875 8.2475 0.9375 8.375 C1.618125 8.58125 2.29875 8.7875 3 9 C3.33 9.66 3.66 10.32 4 11 C1.6875 11.6875 1.6875 11.6875 -1 12 C-2.8125 10.9375 -2.8125 10.9375 -4 9 C-4.4375 6 -4.4375 6 -4 3 C-2 1.125 -2 1.125 0 0 Z " fill="#303132" transform="translate(61,13)"/>
<path d="M0 0 C0.66 0 1.32 0 2 0 C2 0.99 2 1.98 2 3 C2.99 3.33 3.98 3.66 5 4 C5 4.66 5 5.32 5 6 C-3.415 6.495 -3.415 6.495 -12 7 C-9.3139714 5.20931427 -7.3373411 4.33944209 -4.3125 3.375 C-3.50425781 3.11460938 -2.69601563 2.85421875 -1.86328125 2.5859375 C-1.24839844 2.39257812 -0.63351563 2.19921875 0 2 C0 1.34 0 0.68 0 0 Z " fill="#292521" transform="translate(73,3)"/>
<path d="M0 0 C3 1 3 1 4 3 C4.66 2.01 5.32 1.02 6 0 C6.66 0 7.32 0 8 0 C8 2.31 8 4.62 8 7 C7.236875 6.814375 6.47375 6.62875 5.6875 6.4375 C2.91032625 5.77180827 2.91032625 5.77180827 0 7 C0 4.69 0 2.38 0 0 Z " fill="#F7F8F8" transform="translate(79,34)"/>
<path d="M0 0 C0.66 0 1.32 0 2 0 C1.68676972 1.67056149 1.34665557 3.33605325 1 5 C0.8659375 5.68578125 0.731875 6.3715625 0.59375 7.078125 C0.16248669 9.07631168 -0.41260455 11.04201516 -1 13 C-1.99 13.33 -2.98 13.66 -4 14 C-4.2165625 12.6078125 -4.2165625 12.6078125 -4.4375 11.1875 C-4.92100111 7.99274889 -4.92100111 7.99274889 -6 5 C-5.01 4.67 -4.02 4.34 -3 4 C-1.99357052 2.67151309 -0.99307821 1.33849671 0 0 Z " fill="#826E4B" transform="translate(45,12)"/>
<path d="M0 0 C0.99 0 1.98 0 3 0 C3.66 2.64 4.32 5.28 5 8 C3.35 7.67 1.7 7.34 0 7 C0 7.66 0 8.32 0 9 C-0.66 9 -1.32 9 -2 9 C-1.34 6.03 -0.68 3.06 0 0 Z " fill="#DDDEDF" transform="translate(35,34)"/>
<path d="M0 0 C0.66 0 1.32 0 2 0 C2 0.99 2 1.98 2 3 C2.66 3 3.32 3 4 3 C4 2.01 4 1.02 4 0 C4.66 0 5.32 0 6 0 C6 2.97 6 5.94 6 9 C5.34 9 4.68 9 4 9 C4 7.68 4 6.36 4 5 C3.34 5 2.68 5 2 5 C2 5.99 2 6.98 2 8 C1.34 8 0.68 8 0 8 C0 5.36 0 2.72 0 0 Z " fill="#E5E6E7" transform="translate(102,34)"/>
<path d="M0 0 C1.32 0.33 2.64 0.66 4 1 C4 2.65 4 4.3 4 6 C0.7169902 7.6415049 -2.42545033 6.51888624 -6 6 C-5.195625 5.38125 -4.39125 4.7625 -3.5625 4.125 C-0.96125481 2.25835959 -0.96125481 2.25835959 0 0 Z " fill="#BE9647" transform="translate(89,22)"/>
<path d="M0 0 C0.99 0.33 1.98 0.66 3 1 C2.01 1.70125 1.02 2.4025 0 3.125 C-2.51699319 5.2254695 -2.94218115 5.68520847 -3.5625 9.0625 C-2.96438371 12.18599621 -2.13630675 13.68566769 0 16 C-2.46800047 14.84826645 -4.04783565 13.95216435 -6 12 C-6.4375 9.1875 -6.4375 9.1875 -6 6 C-3.5625 3.1875 -3.5625 3.1875 -1 1 C-0.67 0.67 -0.34 0.34 0 0 Z " fill="#2D2D2D" transform="translate(58,10)"/>
<path d="M0 0 C0.99 0 1.98 0 3 0 C3 0.66 3 1.32 3 2 C5.31 2 7.62 2 10 2 C10.33 1.34 10.66 0.68 11 0 C11.99 0.66 12.98 1.32 14 2 C14 2.66 14 3.32 14 4 C9.38 4 4.76 4 0 4 C0 2.68 0 1.36 0 0 Z " fill="#8F8266" transform="translate(51,3)"/>
<path d="M0 0 C0.33 0 0.66 0 1 0 C1 2.31 1 4.62 1 7 C1.66 7 2.32 7 3 7 C3.66 8.32 4.32 9.64 5 11 C4.01 12.485 4.01 12.485 3 14 C1.68 13.34 0.36 12.68 -1 12 C-1 9.37165722 -0.80210238 6.91813299 -0.5 4.3125 C-0.4071875 3.50425781 -0.314375 2.69601563 -0.21875 1.86328125 C-0.1465625 1.24839844 -0.074375 0.63351563 0 0 Z " fill="#594A33" transform="translate(42,18)"/>
<path d="M0 0 C0 1.65 0 3.3 0 5 C-0.33 3.68 -0.66 2.36 -1 1 C-2.65 1 -4.3 1 -6 1 C-5.67 2.98 -5.34 4.96 -5 7 C-6.65 6.67 -8.3 6.34 -10 6 C-10.33 5.01 -10.66 4.02 -11 3 C-7.6562111 -0.84535724 -4.83651161 -1.55459302 0 0 Z " fill="#1B1C1D" transform="translate(92,15)"/>
<path d="M0 0 C1.4540625 0.0309375 1.4540625 0.0309375 2.9375 0.0625 C2.9375 1.0525 2.9375 2.0425 2.9375 3.0625 C2.2775 2.7325 1.6175 2.4025 0.9375 2.0625 C0.9375 4.3725 0.9375 6.6825 0.9375 9.0625 C-1.0625 7.0625 -1.0625 7.0625 -1.1875 4.4375 C-1.14625 3.65375 -1.105 2.87 -1.0625 2.0625 C-1.7225 2.0625 -2.3825 2.0625 -3.0625 2.0625 C-3.0625 3.0525 -3.0625 4.0425 -3.0625 5.0625 C-3.7225 5.0625 -4.3825 5.0625 -5.0625 5.0625 C-3.9375 0.08035714 -3.9375 0.08035714 0 0 Z " fill="#1E2021" transform="translate(56.0625,31.9375)"/>
<path d="M0 0 C0.66 0 1.32 0 2 0 C2 0.99 2 1.98 2 3 C2.66 3 3.32 3 4 3 C4 2.01 4 1.02 4 0 C4.66 0 5.32 0 6 0 C6 2.31 6 4.62 6 7 C5.34 7 4.68 7 4 7 C4 6.01 4 5.02 4 4 C3.34 4 2.68 4 2 4 C2 5.32 2 6.64 2 8 C1.34 8 0.68 8 0 8 C0 5.36 0 2.72 0 0 Z " fill="#F3F3F3" transform="translate(49,34)"/>
<path d="M0 0 C0.99 0.33 1.98 0.66 3 1 C4.1875 4.0625 4.1875 4.0625 5 7 C4.34 7.66 3.68 8.32 3 9 C2.67 8.67 2.34 8.34 2 8 C1.67 8.99 1.34 9.98 1 11 C-0.62950412 6.87831311 -1.26264601 4.29299643 0 0 Z " fill="#675639" transform="translate(97,9)"/>
<path d="M0 0 C0.309375 0.639375 0.61875 1.27875 0.9375 1.9375 C1.8345163 3.93610821 1.8345163 3.93610821 3 5 C3.23287008 6.68183948 3.41264166 8.3712416 3.5625 10.0625 C3.64628906 10.98160156 3.73007812 11.90070312 3.81640625 12.84765625 C3.87699219 13.55792969 3.93757813 14.26820312 4 15 C2 14 2 14 1.1484375 11.71484375 C0.76558594 10.34005859 0.76558594 10.34005859 0.375 8.9375 C0.11460938 8.01839844 -0.14578125 7.09929688 -0.4140625 6.15234375 C-0.60742188 5.44207031 -0.80078125 4.73179688 -1 4 C-1.99 4.33 -2.98 4.66 -4 5 C-3 2 -3 2 0 0 Z " fill="#372F23" transform="translate(38,13)"/>
<path d="M0 0 C0.66 0 1.32 0 2 0 C2.33 0.66 2.66 1.32 3 2 C3.66 1.34 4.32 0.68 5 0 C5 3.3 5 6.6 5 10 C4.01 8.68 3.02 7.36 2 6 C1.34 6.99 0.68 7.98 0 9 C0 6.03 0 3.06 0 0 Z " fill="#FBFBFB" transform="translate(112,34)"/>
<path d="M0 0 C1.65 0 3.3 0 5 0 C4.01 0.33 3.02 0.66 2 1 C2 1.99 2 2.98 2 4 C2.66 4.33 3.32 4.66 4 5 C3.34 5 2.68 5 2 5 C2 6.32 2 7.64 2 9 C2.99 9 3.98 9 5 9 C5 9.66 5 10.32 5 11 C3.35 10.67 1.7 10.34 0 10 C0 6.7 0 3.4 0 0 Z " fill="#F1F2F2" transform="translate(119,34)"/>
<path d="M0 0 C2 0 4 0 6 0 C6 2.31 6 4.62 6 7 C5.01 6.67 4.02 6.34 3 6 C2.67 5.34 2.34 4.68 2 4 C1.34 4.99 0.68 5.98 0 7 C0 4.69 0 2.38 0 0 Z " fill="#F9F9F9" transform="translate(61,34)"/>
<path d="M0 0 C3.63 0.33 7.26 0.66 11 1 C11 1.99 11 2.98 11 4 C8.03 4 5.06 4 2 4 C2 3.01 2 2.02 2 1 C1.34 0.67 0.68 0.34 0 0 Z " fill="#3C301D" transform="translate(80,27)"/>
<path d="M0 0 C0.99 0.33 1.98 0.66 3 1 C4.1875 4.5625 4.1875 4.5625 5 8 C4.34 8 3.68 8 3 8 C3 7.34 3 6.68 3 6 C1.35 6.33 -0.3 6.66 -2 7 C-1.34 4.69 -0.68 2.38 0 0 Z " fill="#E3E3E4" transform="translate(90,34)"/>
<path d="M0 0 C0.66 0.33 1.32 0.66 2 1 C2 1.66 2 2.32 2 3 C2.66 3.33 3.32 3.66 4 4 C3.01 5.32 2.02 6.64 1 8 C-0.65 7.67 -2.3 7.34 -4 7 C-2.25 3.125 -2.25 3.125 0 2 C0 1.34 0 0.68 0 0 Z " fill="#37322A" transform="translate(98,15)"/>
<path d="M0 0 C0.66 0 1.32 0 2 0 C2.33 3.3 2.66 6.6 3 10 C2.01 10 1.02 10 0 10 C-1.36952673 7.26094655 -1.12621361 5.02912668 -1 2 C-0.67 1.34 -0.34 0.68 0 0 Z " fill="#3D3426" transform="translate(45,17)"/>
<path d="M0 0 C-3.00617269 3.00617269 -5.82381598 2.59585316 -10 3 C-9.67 1.68 -9.34 0.36 -9 -1 C-3.375 -2.25 -3.375 -2.25 0 0 Z " fill="#D9B774" transform="translate(62,29)"/>
<path d="M0 0 C2.64 0 5.28 0 8 0 C8 0.66 8 1.32 8 2 C7.01 2.495 7.01 2.495 6 3 C5.01 4.485 5.01 4.485 4 6 C2.62437146 4.71034824 1.29233607 3.37310707 0 2 C0 1.34 0 0.68 0 0 Z " fill="#272728" transform="translate(79,32)"/>
<path d="M0 0 C0.99 0 1.98 0 3 0 C3 1.32 3 2.64 3 4 C3.66 4 4.32 4 5 4 C4.34 5.32 3.68 6.64 3 8 C3 7.34 3 6.68 3 6 C1.02 6.99 1.02 6.99 -1 8 C-0.67 5.36 -0.34 2.72 0 0 Z " fill="#65553B" transform="translate(103,17)"/>
<path d="M0 0 C3.96 0 7.92 0 12 0 C11.01 0.495 11.01 0.495 10 1 C10 1.66 10 2.32 10 3 C3.375 2.25 3.375 2.25 0 0 Z " fill="#D0AB60" transform="translate(79,8)"/>
<path d="M0 0 C0.99 0.33 1.98 0.66 3 1 C3.99 0.67 4.98 0.34 6 0 C6.33 0.66 6.66 1.32 7 2 C7.66 2 8.32 2 9 2 C9 2.66 9 3.32 9 4 C6.03 3.67 3.06 3.34 0 3 C0 2.01 0 1.02 0 0 Z " fill="#6D5730" transform="translate(83,3)"/>
<path d="M0 0 C-1.79885447 1.19923631 -3.62578844 2.35982835 -5.5 3.4375 C-7.68806893 4.80504308 -9.28096655 6.10001566 -11 8 C-10.8125 5.6875 -10.8125 5.6875 -10 3 C-6.66753954 0.31551796 -4.23795734 -0.36325349 0 0 Z " fill="#F2F3F3" transform="translate(71,12)"/>
<path d="M0 0 C2.0625 0.4375 2.0625 0.4375 4 1 C3.67 1.33 3.34 1.66 3 2 C4.65 2 6.3 2 8 2 C8 2.66 8 3.32 8 4 C5.75 4.75 5.75 4.75 3 5 C0.6875 3.0625 0.6875 3.0625 -1 1 C-0.67 0.67 -0.34 0.34 0 0 Z " fill="#FBFCFC" transform="translate(74,13)"/>
<path d="M0 0 C2.9375 0.375 2.9375 0.375 6 1 C6.33 1.66 6.66 2.32 7 3 C4 5 4 5 1.8125 4.625 C1.214375 4.41875 0.61625 4.2125 0 4 C0 2.68 0 1.36 0 0 Z " fill="#222324" transform="translate(76,11)"/>
<path d="M0 0 C1.65 0 3.3 0 5 0 C5.33 1.65 5.66 3.3 6 5 C4 5 2 5 0 5 C0 3.35 0 1.7 0 0 Z " fill="#E9E9EA" transform="translate(49,43)"/>
<path d="M0 0 C1.65 0 3.3 0 5 0 C5.33 1.65 5.66 3.3 6 5 C3.03 4.505 3.03 4.505 0 4 C0 2.68 0 1.36 0 0 Z " fill="#D6D7D7" transform="translate(88,43)"/>
<path d="M0 0 C1.98 0 3.96 0 6 0 C5.67 0.99 5.34 1.98 5 3 C4.01 3 3.02 3 2 3 C2 3.66 2 4.32 2 5 C1.34 5 0.68 5 0 5 C0 3.35 0 1.7 0 0 Z " fill="#D6D7D7" transform="translate(66,43)"/>
<path d="M0 0 C0.99 0.495 0.99 0.495 2 1 C2.59355614 3.64860427 2.74209269 6.29197322 3 9 C2.01 9 1.02 9 0 9 C0 6.03 0 3.06 0 0 Z " fill="#959697" transform="translate(109,34)"/>
<path d="M0 0 C2.375 0.8125 2.375 0.8125 4.375 2.8125 C0.745 2.8125 -2.885 2.8125 -6.625 2.8125 C-2.625 -0.1875 -2.625 -0.1875 0 0 Z " fill="#C39C4F" transform="translate(80.625,4.1875)"/>
<path d="M0 0 C1.32 0 2.64 0 4 0 C4 1.65 4 3.3 4 5 C2.68 5 1.36 5 0 5 C0 3.35 0 1.7 0 0 Z " fill="#D2B988" transform="translate(86,16)"/>
<path d="M0 0 C0.33 0.99 0.66 1.98 1 3 C-2.63423209 5.32590854 -5.77088331 5.16265833 -10 5 C-10 4.67 -10 4.34 -10 4 C-8.906875 3.71125 -7.81375 3.4225 -6.6875 3.125 C-2.95986155 2.18106796 -2.95986155 2.18106796 0 0 Z " fill="#E4E5E5" transform="translate(80,20)"/>
<path d="M0 0 C5.29441695 -0.50423019 7.81413519 0.81076967 12 4 C11.01 4.33 10.02 4.66 9 5 C6.5625 3.6875 6.5625 3.6875 4 2 C2.67391178 1.31903578 1.34313399 0.64669414 0 0 Z " fill="#C2A05D" transform="translate(75,10)"/>
<path d="M0 0 C2.97 0 5.94 0 9 0 C8.01 1.485 8.01 1.485 7 3 C5.68 3 4.36 3 3 3 C3 2.34 3 1.68 3 1 C2.01 0.67 1.02 0.34 0 0 Z " fill="#31281E" transform="translate(97,44)"/>
<path d="M0 0 C0.66 0 1.32 0 2 0 C2 2.31 2 4.62 2 7 C1.34 7 0.68 7 0 7 C-0.38133299 5.0085944 -0.71325582 3.00720923 -1 1 C-0.67 0.67 -0.34 0.34 0 0 Z " fill="#EDEFEF" transform="translate(85,34)"/>
<path d="M0 0 C0.33 1.32 0.66 2.64 1 4 C-0.65 4.33 -2.3 4.66 -4 5 C-4.33 3.68 -4.66 2.36 -5 1 C-2 0 -2 0 0 0 Z " fill="#453925" transform="translate(105,24)"/>
<path d="M0 0 C0 3.10551666 -0.5393715 4.35261084 -2 7 C-2.66 6.67 -3.32 6.34 -4 6 C-3.6875 4.125 -3.6875 4.125 -3 2 C-2.01 1.34 -1.02 0.68 0 0 Z " fill="#1E1E20" transform="translate(61,13)"/>
<path d="M0 0 C1.9375 0.3125 1.9375 0.3125 4 1 C4.33 1.99 4.66 2.98 5 4 C3.35 4 1.7 4 0 4 C0 2.68 0 1.36 0 0 Z " fill="#B49659" transform="translate(65,3)"/>
<path d="M0 0 C0.99 0 1.98 0 3 0 C3 1.65 3 3.3 3 5 C2.34 5 1.68 5 1 5 C1 4.34 1 3.68 1 3 C0.01 3.33 -0.98 3.66 -2 4 C-1.34 2.68 -0.68 1.36 0 0 Z " fill="#B88F44" transform="translate(91,2)"/>
</svg>
