<?xml version="1.0" encoding="UTF-8"?>
<svg version="1.1" xmlns="http://www.w3.org/2000/svg" width="150" height="90">
<path d="M0 0 C15.51 0 31.02 0 47 0 C47.99 1.98 48.98 3.96 50 6 C51.79600867 8.00974488 51.79600867 8.00974488 53.8125 9.75 C62.6521886 18.34594719 66.76032916 28.74347193 67.375 41.0625 C66.85005649 46.57440684 65.45681172 51.65835702 64 57 C68.95 57 73.9 57 79 57 C79 59.97 79 62.94 79 66 C78.34 66 77.68 66 77 66 C76.979375 67.299375 76.95875 68.59875 76.9375 69.9375 C76.92589844 70.66839844 76.91429688 71.39929688 76.90234375 72.15234375 C76.79438816 74.01732141 76.79438816 74.01732141 78 75 C78.07179964 76.51928038 78.08392007 78.04167482 78.0625 79.5625 C78.05347656 80.38878906 78.04445313 81.21507813 78.03515625 82.06640625 C78.02355469 82.70449219 78.01195313 83.34257813 78 84 C76.89591797 83.76603516 76.89591797 83.76603516 75.76953125 83.52734375 C74.79371094 83.33269531 73.81789063 83.13804688 72.8125 82.9375 C71.84957031 82.74027344 70.88664062 82.54304688 69.89453125 82.33984375 C66.89960689 81.98821295 64.85931593 82.05677143 62 83 C61.34 83.99 60.68 84.98 60 86 C57.8359375 86.29296875 57.8359375 86.29296875 55.375 86.1875 C54.55773437 86.16042969 53.74046875 86.13335937 52.8984375 86.10546875 C52.27195312 86.07066406 51.64546875 86.03585938 51 86 C50.505 87.485 50.505 87.485 50 89 C32.51 89 15.02 89 -3 89 C-3 88.01 -3 87.02 -3 86 C-3.68707031 86.04640625 -4.37414062 86.0928125 -5.08203125 86.140625 C-5.98308594 86.17671875 -6.88414063 86.2128125 -7.8125 86.25 C-8.70582031 86.29640625 -9.59914063 86.3428125 -10.51953125 86.390625 C-11.33808594 86.26171875 -12.15664063 86.1328125 -13 86 C-13.4640625 85.3296875 -13.928125 84.659375 -14.40625 83.96875 C-14.9321875 83.3190625 -15.458125 82.669375 -16 82 C-19.21187139 81.73374666 -19.21187139 81.73374666 -22.6875 82.25 C-23.86699219 82.37890625 -25.04648437 82.5078125 -26.26171875 82.640625 C-27.16535156 82.75921875 -28.06898437 82.8778125 -29 83 C-28.97679687 82.39414063 -28.95359375 81.78828125 -28.9296875 81.1640625 C-28.81146003 75.67493019 -29.27265673 70.76039299 -30.5625 65.421875 C-31 63 -31 63 -31 57 C-26.38 56.67 -21.76 56.34 -17 56 C-17.32226562 55.00355469 -17.64453125 54.00710937 -17.9765625 52.98046875 C-21.27273605 41.36802017 -19.33687215 28.97384562 -13.64453125 18.5078125 C-10.79474561 13.96954796 -7.51031688 10.2659583 -3.515625 6.703125 C-1.54445319 4.68231831 -1.54445319 4.68231831 0 0 Z " fill="#24221F" transform="translate(48,0)"/>
<path d="M0 0 C11.22 0 22.44 0 34 0 C33.34 0.33 32.68 0.66 32 1 C32.309375 1.53625 32.61875 2.0725 32.9375 2.625 C34.17827439 5.3984957 34.5909675 8.00042837 35 11 C35.66 8.69 36.32 6.38 37 4 C38.32 4 39.64 4 41 4 C41.495 5.98 41.495 5.98 42 8 C41.34 8 40.68 8 40 8 C40 7.34 40 6.68 40 6 C39.34 6 38.68 6 38 6 C38 7.98 38 9.96 38 12 C39.65 12 41.3 12 43 12 C43 9.03 43 6.06 43 3 C43.66 3 44.32 3 45 3 C45 4.98 45 6.96 45 9 C45.66 9 46.32 9 47 9 C47 7.02 47 5.04 47 3 C48.32 3 49.64 3 51 3 C51.495 3.99 51.495 3.99 52 5 C52.33 4.34 52.66 3.68 53 3 C53.66 3 54.32 3 55 3 C55.495 4.485 55.495 4.485 56 6 C56.33 5.01 56.66 4.02 57 3 C59.64 3 62.28 3 65 3 C65 3.66 65 4.32 65 5 C64.01 5 63.02 5 62 5 C62 6.65 62 8.3 62 10 C62.66 10 63.32 10 64 10 C64 10.99 64 11.98 64 13 C63.34 13 62.68 13 62 13 C62 14.98 62 16.96 62 19 C63.65 18.67 65.3 18.34 67 18 C67 20.64 67 23.28 67 26 C66.26394531 25.84402344 65.52789062 25.68804687 64.76953125 25.52734375 C63.79371094 25.33269531 62.81789063 25.13804688 61.8125 24.9375 C60.36810547 24.64166016 60.36810547 24.64166016 58.89453125 24.33984375 C55.89960689 23.98821295 53.85931593 24.05677143 51 25 C50.01 26.485 50.01 26.485 49 28 C46.8359375 28.29296875 46.8359375 28.29296875 44.375 28.1875 C43.14910156 28.14689453 43.14910156 28.14689453 41.8984375 28.10546875 C41.27195312 28.07066406 40.64546875 28.03585938 40 28 C39.505 29.485 39.505 29.485 39 31 C21.51 31 4.02 31 -14 31 C-14 30.01 -14 29.02 -14 28 C-14.68707031 28.04640625 -15.37414062 28.0928125 -16.08203125 28.140625 C-17.43361328 28.19476563 -17.43361328 28.19476563 -18.8125 28.25 C-19.70582031 28.29640625 -20.59914063 28.3428125 -21.51953125 28.390625 C-22.33808594 28.26171875 -23.15664063 28.1328125 -24 28 C-24.4640625 27.3296875 -24.928125 26.659375 -25.40625 25.96875 C-25.9321875 25.3190625 -26.458125 24.669375 -27 24 C-30.21187139 23.73374666 -30.21187139 23.73374666 -33.6875 24.25 C-34.86699219 24.37890625 -36.04648437 24.5078125 -37.26171875 24.640625 C-38.16535156 24.75921875 -39.06898437 24.8778125 -40 25 C-39.125 18.125 -39.125 18.125 -38 17 C-37.92728259 14.64686445 -37.91629132 12.29166332 -37.9375 9.9375 C-37.95103516 8.00197266 -37.95103516 8.00197266 -37.96484375 6.02734375 C-37.97644531 5.02832031 -37.98804688 4.02929688 -38 3 C-37.34 3 -36.68 3 -36 3 C-35.67 4.65 -35.34 6.3 -35 8 C-34.34 6.35 -33.68 4.7 -33 3 C-32.34 3 -31.68 3 -31 3 C-30.67 4.65 -30.34 6.3 -30 8 C-29.34 6.35 -28.68 4.7 -28 3 C-27.34 3 -26.68 3 -26 3 C-26 3.99 -26 4.98 -26 6 C-25.34 6 -24.68 6 -24 6 C-24 5.01 -24 4.02 -24 3 C-23.01 3 -22.02 3 -21 3 C-20.67 5.97 -20.34 8.94 -20 12 C-18.68 11.67 -17.36 11.34 -16 11 C-16.66 10.34 -17.32 9.68 -18 9 C-17.625 6.375 -17.625 6.375 -17 4 C-15.68 3.67 -14.36 3.34 -13 3 C-12.34 4.65 -11.68 6.3 -11 8 C-11 6.35 -11 4.7 -11 3 C-10.01 3 -9.02 3 -8 3 C-8 4.98 -8 6.96 -8 9 C-7.34 9 -6.68 9 -6 9 C-6 7.02 -6 5.04 -6 3 C-4.02 3 -2.04 3 0 3 C0 2.01 0 1.02 0 0 Z " fill="#303030" transform="translate(59,58)"/>
<path d="M0 0 C15.51 0 31.02 0 47 0 C47.99 1.98 48.98 3.96 50 6 C51.79600867 8.00974488 51.79600867 8.00974488 53.8125 9.75 C62.6521886 18.34594719 66.76032916 28.74347193 67.375 41.0625 C66.85005649 46.57440684 65.45681172 51.65835702 64 57 C68.95 57 73.9 57 79 57 C79 59.97 79 62.94 79 66 C78.34 66 77.68 66 77 66 C76.979375 67.27875 76.95875 68.5575 76.9375 69.875 C76.92589844 70.59429687 76.91429688 71.31359375 76.90234375 72.0546875 C76.87350758 74.08185404 76.87350758 74.08185404 78 76 C76.35 76.33 74.7 76.66 73 77 C73 75.02 73 73.04 73 71 C73.66 71 74.32 71 75 71 C75 70.01 75 69.02 75 68 C74.34 68 73.68 68 73 68 C73 66.35 73 64.7 73 63 C73.99 63 74.98 63 76 63 C76 62.34 76 61.68 76 61 C74.35 61 72.7 61 71 61 C70.505 61.99 70.505 61.99 70 63 C70 62.34 70 61.68 70 61 C69.34 61 68.68 61 68 61 C68 63.31 68 65.62 68 68 C66.5393715 65.35261084 66 64.10551666 66 61 C65.34 61 64.68 61 64 61 C64 62.65 64 64.3 64 66 C62 63 62 63 62 61 C60.68 61 59.36 61 58 61 C58 62.98 58 64.96 58 67 C57.34 67 56.68 67 56 67 C56 65.02 56 63.04 56 61 C55.34 61 54.68 61 54 61 C54 63.97 54 66.94 54 70 C52.35 70 50.7 70 49 70 C49 68.02 49 66.04 49 64 C49.66 64 50.32 64 51 64 C51 64.66 51 65.32 51 66 C51.66 66 52.32 66 53 66 C52.34 64.68 51.68 63.36 51 62 C49.515 62.495 49.515 62.495 48 63 C47.67 66.63 47.34 70.26 47 74 C46.67 74 46.34 74 46 74 C45.01 69.05 44.02 64.1 43 59 C32.77 59 22.54 59 12 59 C12 61.97 12 64.94 12 68 C11.67 68 11.34 68 11 68 C11 65.69 11 63.38 11 61 C10.01 61 9.02 61 8 61 C8 62.98 8 64.96 8 67 C7.67 67 7.34 67 7 67 C7 65.02 7 63.04 7 61 C6.34 61 5.68 61 5 61 C5 62.98 5 64.96 5 67 C4.34 67 3.68 67 3 67 C3 65.02 3 63.04 3 61 C2.01 61 1.02 61 0 61 C0 62.65 0 64.3 0 66 C-0.66 65.67 -1.32 65.34 -2 65 C-2 64.01 -2 63.02 -2 62 C-3.98 62.495 -3.98 62.495 -6 63 C-5.7525 64.1446875 -5.7525 64.1446875 -5.5 65.3125 C-5 68 -5 68 -5 71 C-6.32 70.67 -7.64 70.34 -9 70 C-9.33 67.03 -9.66 64.06 -10 61 C-10.99 61 -11.98 61 -13 61 C-13 61.99 -13 62.98 -13 64 C-13.66 64 -14.32 64 -15 64 C-15 63.01 -15 62.02 -15 61 C-15.66 61 -16.32 61 -17 61 C-17.33 64.96 -17.66 68.92 -18 73 C-18.33 73 -18.66 73 -19 73 C-19.33 69.04 -19.66 65.08 -20 61 C-20.66 61 -21.32 61 -22 61 C-22.33 64.96 -22.66 68.92 -23 73 C-23.33 73 -23.66 73 -24 73 C-24.33 69.04 -24.66 65.08 -25 61 C-25.66 61 -26.32 61 -27 61 C-26.835 61.825 -26.67 62.65 -26.5 63.5 C-25.94103955 67.41272317 -25.93192813 71.05183173 -26 75 C-26.99 75.495 -26.99 75.495 -28 76 C-28.50838564 73.96040523 -29.00633886 71.91820862 -29.5 69.875 C-29.7784375 68.73804687 -30.056875 67.60109375 -30.34375 66.4296875 C-31 63 -31 63 -31 57 C-26.38 56.67 -21.76 56.34 -17 56 C-17.32226562 55.00355469 -17.64453125 54.00710937 -17.9765625 52.98046875 C-21.27273605 41.36802017 -19.33687215 28.97384562 -13.64453125 18.5078125 C-10.79474561 13.96954796 -7.51031688 10.2659583 -3.515625 6.703125 C-1.54445319 4.68231831 -1.54445319 4.68231831 0 0 Z M1 3 C1 20.82 1 38.64 1 57 C15.85 57 30.7 57 46 57 C46.33 55.68 46.66 54.36 47 53 C47.99 53.495 47.99 53.495 49 54 C49.33 53.67 49.66 53.34 50 53 C50.495 55.475 50.495 55.475 51 58 C51.66 56.68 52.32 55.36 53 54 C53.99 54.33 54.98 54.66 56 55 C57.77950427 52.13205871 57.77950427 52.13205871 57.5 48.875 C57.335 48.25625 57.17 47.6375 57 47 C57.66 46.34 58.32 45.68 59 45 C59.82888749 42.02685532 59.82888749 42.02685532 60 39 C59.34 38.34 58.68 37.68 58 37 C57.67 37.33 57.34 37.66 57 38 C57.20625 36.845 57.4125 35.69 57.625 34.5 C58.22546004 29.89373124 57.34090115 26.41708612 56 22 C56.66 22 57.32 22 58 22 C60.67983981 28.34866813 61.3013629 34.37855557 61.3125 41.1875 C61.32023437 42.32711182 61.32023437 42.32711182 61.328125 43.48974609 C61.26893298 48.3403205 60.53059066 52.39603208 59 57 C59.66 57 60.32 57 61 57 C65.18273164 48.63453672 65.28601929 38.88517304 63.30859375 29.8359375 C60.33498982 21.00221872 55.59135547 13.47283767 48 8 C47.67 8 47.34 8 47 8 C46.505 5.525 46.505 5.525 46 3 C31.15 3 16.3 3 1 3 Z " fill="#21201D" transform="translate(48,0)"/>
<path d="M0 0 C-1.33333333 2.66666667 -2.66666667 5.33333333 -4 8 C-3.67 8.33 -3.34 8.66 -3 9 C-2.67 8.01 -2.34 7.02 -2 6 C-1.34 6 -0.68 6 0 6 C-0.185625 6.94875 -0.37125 7.8975 -0.5625 8.875 C-1.28686632 11.89868793 -1.28686632 11.89868793 0 14 C0.66 14 1.32 14 2 14 C2 25.22 2 36.44 2 48 C5.3 48.33 8.6 48.66 12 49 C13 50 13 50 13.09765625 52.06640625 C13.08605469 52.89011719 13.07445312 53.71382812 13.0625 54.5625 C13.05347656 55.38878906 13.04445312 56.21507812 13.03515625 57.06640625 C13.02355469 57.70449219 13.01195312 58.34257813 13 59 C12.67 59 12.34 59 12 59 C12 56.69 12 54.38 12 52 C11.01 52 10.02 52 9 52 C9 53.98 9 55.96 9 58 C8.67 58 8.34 58 8 58 C8 56.02 8 54.04 8 52 C7.34 52 6.68 52 6 52 C6 53.98 6 55.96 6 58 C5.34 58 4.68 58 4 58 C4 56.02 4 54.04 4 52 C3.01 52 2.02 52 1 52 C1 53.65 1 55.3 1 57 C0.34 56.67 -0.32 56.34 -1 56 C-1 55.01 -1 54.02 -1 53 C-2.98 53.495 -2.98 53.495 -5 54 C-4.835 54.763125 -4.67 55.52625 -4.5 56.3125 C-4 59 -4 59 -4 62 C-5.32 61.67 -6.64 61.34 -8 61 C-8.33 58.03 -8.66 55.06 -9 52 C-9.99 52 -10.98 52 -12 52 C-12 52.99 -12 53.98 -12 55 C-12.66 55 -13.32 55 -14 55 C-14 54.01 -14 53.02 -14 52 C-14.66 52 -15.32 52 -16 52 C-16.33 55.96 -16.66 59.92 -17 64 C-17.33 64 -17.66 64 -18 64 C-18.33 60.04 -18.66 56.08 -19 52 C-19.66 52 -20.32 52 -21 52 C-21.33 55.96 -21.66 59.92 -22 64 C-22.33 64 -22.66 64 -23 64 C-23.33 60.04 -23.66 56.08 -24 52 C-24.66 52 -25.32 52 -26 52 C-25.835 52.825 -25.67 53.65 -25.5 54.5 C-24.94103955 58.41272317 -24.93192813 62.05183173 -25 66 C-25.99 66.495 -25.99 66.495 -27 67 C-27.50838564 64.96040523 -28.00633886 62.91820862 -28.5 60.875 C-28.7784375 59.73804688 -29.056875 58.60109375 -29.34375 57.4296875 C-30 54 -30 54 -30 48 C-25.38 47.67 -20.76 47.34 -16 47 C-16.20625 45.865625 -16.4125 44.73125 -16.625 43.5625 C-18.2866657 28.36668763 -14.09811937 15.08230253 -5 3 C-2.34 0 -2.34 0 0 0 Z " fill="#222221" transform="translate(47,9)"/>
<path d="M0 0 C4.62 0 9.24 0 14 0 C13.2575 0.70125 12.515 1.4025 11.75 2.125 C5.97415684 8.16338149 3.59813344 13.11427642 3.73046875 21.3671875 C4.24658707 26.40869107 6.03228619 30.01294748 9.58984375 33.60546875 C14.6773366 37.44528893 19.77162222 37.68125329 26.00390625 37.421875 C31.31133431 36.67454484 33.83457009 34.29142233 37.3125 30.4375 C39.14375 28.03541667 39.14375 28.03541667 40 25 C40.99 25 41.98 25 43 25 C43 20.71 43 16.42 43 12 C42.01 12 41.02 12 40 12 C39.608125 11.0925 39.21625 10.185 38.8125 9.25 C36.90355178 5.82705837 35.14742258 4.25968801 32 2 C31.34 1.34 30.68 0.68 30 0 C34.95 0 39.9 0 45 0 C45 13.86 45 27.72 45 42 C30.15 42 15.3 42 0 42 C0 28.14 0 14.28 0 0 Z " fill="#B48E48" transform="translate(49,15)"/>
<path d="M0 0 C4.47559406 2.19710981 7.09883067 4.98299631 10 9 C9.34 9.66 8.68 10.32 8 11 C6.8553125 9.824375 6.8553125 9.824375 5.6875 8.625 C2.22321121 5.24127606 0.06969342 3.78866899 -4.6875 3.375 C-5.49574219 3.30023437 -6.30398437 3.22546875 -7.13671875 3.1484375 C-7.75160156 3.09945313 -8.36648437 3.05046875 -9 3 C-9 3.66 -9 4.32 -9 5 C-8.01 5 -7.02 5 -6 5 C-6 5.66 -6 6.32 -6 7 C-6.9075 7.53625 -7.815 8.0725 -8.75 8.625 C-12.27505875 10.81468356 -13.48797429 13.43208391 -15.04296875 17.1953125 C-16 19 -16 19 -19 21 C-18.67 22.32 -18.34 23.64 -18 25 C-8.94319109 18.70797812 -8.94319109 18.70797812 -3.1875 9.625 C-3.125625 9.08875 -3.06375 8.5525 -3 8 C-1.68 7.67 -0.36 7.34 1 7 C0.67 8.32 0.34 9.64 0 11 C2.9254644 11.2236068 2.9254644 11.2236068 5 10 C4.67 11.65 4.34 13.3 4 15 C0.125 16 0.125 16 -1 16 C-2.05016013 17.14034008 -3.06590196 18.31256404 -4.0625 19.5 C-4.61035156 20.1496875 -5.15820312 20.799375 -5.72265625 21.46875 C-6.14417969 21.9740625 -6.56570312 22.479375 -7 23 C-5.19038423 24.62831762 -5.19038423 24.62831762 -3 26 C-2.01 25.67 -1.02 25.34 0 25 C0 24.01 0 23.02 0 22 C0.99 22 1.98 22 3 22 C3.33 21.34 3.66 20.68 4 20 C4.56638908 24.81430721 2.82561627 27.20307814 0 31 C0.54269531 30.48308594 1.08539063 29.96617188 1.64453125 29.43359375 C2.35996094 28.77488281 3.07539062 28.11617187 3.8125 27.4375 C4.87404297 26.44556641 4.87404297 26.44556641 5.95703125 25.43359375 C6.63121094 24.96050781 7.30539063 24.48742187 8 24 C8.99 24.33 9.98 24.66 11 25 C5.71887035 33.23234917 5.71887035 33.23234917 0 35 C-5.53019285 35.60854942 -10.28941459 35.74643727 -15.4375 33.5 C-20.21680498 28.83726344 -23.2728652 24.73034126 -23.5 17.875 C-23.19197191 12.70960581 -22.09108955 9.05720615 -18.3125 5.33984375 C-12.30348136 0.04439607 -8.05561231 -0.82037353 0 0 Z " fill="#C9B38A" transform="translate(77,16)"/>
<path d="M0 0 C6.27761975 -0.50220958 9.9591692 -0.20069234 15 4 C16.875 5.75 16.875 5.75 18 7 C17.505 6.21625 17.01 5.4325 16.5 4.625 C15 2 15 2 15 0 C18.16115776 1.36983503 18.9927092 1.9890638 21 5 C21 5.99 21 6.98 21 8 C21.99 8 22.98 8 24 8 C24 12.29 24 16.58 24 21 C22.02 20.67 20.04 20.34 18 20 C16.14152052 21.30293679 16.14152052 21.30293679 14.875 23.3125 C12.82349631 26.16953762 11.26277589 27.62067199 8 29 C9.07401108 26.08482708 9.77810176 24.22189824 12 22 C12 21.01 12 20.02 12 19 C11.01 19.33 10.02 19.66 9 20 C9 20.99 9 21.98 9 23 C8.01 23.33 7.02 23.66 6 24 C3.3125 22.0625 3.3125 22.0625 1 20 C3.97 16.535 3.97 16.535 7 13 C6.67 12.34 6.34 11.68 6 11 C8.97 11.495 8.97 11.495 12 12 C12 11.01 12 10.02 12 9 C11.01 9 10.02 9 9 9 C9 6 9 6 10 4 C8.02 4.99 8.02 4.99 6 6 C6 7.32 6 8.64 6 10 C5.34 10 4.68 10 4 10 C3.76152344 10.57363281 3.52304688 11.14726562 3.27734375 11.73828125 C1.73490626 14.46938617 -0.08066082 16.12478197 -2.4375 18.1875 C-3.61119141 19.22970703 -3.61119141 19.22970703 -4.80859375 20.29296875 C-7 22 -7 22 -10 23 C-10.33 21.35 -10.66 19.7 -11 18 C-10.38125 17.814375 -9.7625 17.62875 -9.125 17.4375 C-6.63623693 16.09346368 -6.63623693 16.09346368 -6.125 12.6875 C-4.6687123 7.91411253 -3.04588502 6.78154595 1 4 C1.66 4 2.32 4 3 4 C3 3.34 3 2.68 3 2 C2.01 2 1.02 2 0 2 C0 1.34 0 0.68 0 0 Z " fill="#282827" transform="translate(68,19)"/>
<path d="M0 0 C14.85 0 29.7 0 45 0 C45 3.3 45 6.6 45 10 C30.15 10 15.3 10 0 10 C0 6.7 0 3.4 0 0 Z " fill="#D0B172" transform="translate(49,3)"/>
<path d="M0 0 C8.01545734 3.77197993 12.07464326 12.01902673 15 20 C17.82980672 28.54564147 16.95877121 40.08245757 13 48 C12.34 47.67 11.68 47.34 11 47 C11.32355469 46.19046875 11.64710937 45.3809375 11.98046875 44.546875 C13.1920298 40.3319423 13.34175962 36.60876862 13.3125 32.25 C13.31121094 31.4573877 13.30992188 30.66477539 13.30859375 29.84814453 C13.21072057 23.86686999 12.34243687 18.54934449 10 13 C9.34 13 8.68 13 8 13 C8.350625 14.155 8.70125 15.31 9.0625 16.5 C10.20737585 20.9834299 9.80854536 24.472146 9 29 C9.33 28.67 9.66 28.34 10 28 C11.125 29.75 11.125 29.75 12 32 C11.125 34.0625 11.125 34.0625 10 36 C10 36.99 10 37.98 10 39 C9.31428571 43.68571429 9.31428571 43.68571429 7 46 C6.34 45.67 5.68 45.34 5 45 C4.34 46.32 3.68 47.64 3 49 C2.67 47.35 2.34 45.7 2 44 C1.505 44.495 1.505 44.495 1 45 C0.01 44.01 -0.98 43.02 -2 42 C-1.01 41.505 -1.01 41.505 0 41 C0.68729254 38.88153715 0.68729254 38.88153715 1.125 36.4375 C1.29257813 35.61121094 1.46015625 34.78492188 1.6328125 33.93359375 C1.75398438 33.29550781 1.87515625 32.65742187 2 32 C3.32 32.33 4.64 32.66 6 33 C6.33 32.34 6.66 31.68 7 31 C5.35 31 3.7 31 2 31 C1.83179449 29.06263299 1.66548905 27.12510094 1.5 25.1875 C1.4071875 24.10855469 1.314375 23.02960937 1.21875 21.91796875 C1 19 1 19 1 16 C0.835 15.34 0.67 14.68 0.5 14 C-0.09095118 11.63619529 0 9.42385651 0 7 C0.99 6.34 1.98 5.68 3 5 C2.2575 4.319375 2.2575 4.319375 1.5 3.625 C0 2 0 2 0 0 Z " fill="#473D2E" transform="translate(96,9)"/>
<path d="M0 0 C0.66 0 1.32 0 2 0 C0.80465088 2.82537064 -0.56124041 4.67075074 -2.5625 7.0625 C-5.13537799 9.80205688 -5.13537799 9.80205688 -6 13 C-5.01 12.67 -4.02 12.34 -3 12 C-2.375 13.875 -2.375 13.875 -2 16 C-2.66 16.66 -3.32 17.32 -4 18 C-4 18.33 -4 18.66 -4 19 C-3.34 19.33 -2.68 19.66 -2 20 C-2 26.93 -2 33.86 -2 41 C-2.99 41.495 -2.99 41.495 -4 42 C-3.67 43.98 -3.34 45.96 -3 48 C-3.66 48 -4.32 48 -5 48 C-9.05109759 38.45098425 -9.4642314 30.16150945 -9 20 C-9.66 20 -10.32 20 -11 20 C-11.56912486 34.28548498 -11.56912486 34.28548498 -8 48 C-8.99 47.67 -9.98 47.34 -11 47 C-15.92195193 37.15609614 -14.7656467 26.32138953 -11.4140625 16.23046875 C-8.73016641 10.09902659 -4.72505826 4.72505826 0 0 Z " fill="#796745" transform="translate(45,9)"/>
<path d="M0 0 C0.99 0 1.98 0 3 0 C2.67 1.32 2.34 2.64 2 4 C4.9254644 4.2236068 4.9254644 4.2236068 7 3 C6.67 4.65 6.34 6.3 6 8 C2.125 9 2.125 9 1 9 C-0.05016013 10.14034008 -1.06590196 11.31256404 -2.0625 12.5 C-2.61035156 13.1496875 -3.15820312 13.799375 -3.72265625 14.46875 C-4.14417969 14.9740625 -4.56570312 15.479375 -5 16 C-3.19038423 17.62831762 -3.19038423 17.62831762 -1 19 C-0.01 18.67 0.98 18.34 2 18 C2 17.01 2 16.02 2 15 C2.99 15 3.98 15 5 15 C5.33 14.34 5.66 13.68 6 13 C6.57112559 16.76942889 5.74756884 18.7310971 3.625 21.75 C2.10886854 23.78924115 1.28816186 24.85591907 -1 26 C-7.03324409 26.06033244 -11.43345443 24.98109101 -16 21 C-16 20.01 -16 19.02 -16 18 C-14.20703125 16.38671875 -14.20703125 16.38671875 -11.8125 14.6875 C-4.44518414 9.22221248 -4.44518414 9.22221248 -1 1 C-0.67 0.67 -0.34 0.34 0 0 Z " fill="#242526" transform="translate(75,23)"/>
<path d="M0 0 C4.62 0 9.24 0 14 0 C13.2575 0.70125 12.515 1.4025 11.75 2.125 C5.96048894 8.17767065 3.64669186 13.10494702 3.70703125 21.359375 C4.29495966 26.65856975 7.10222614 30.65333922 10 35 C8.02 35 6.04 35 4 35 C4 37.31 4 39.62 4 42 C2.68 42 1.36 42 0 42 C0 28.14 0 14.28 0 0 Z " fill="#E9E9E7" transform="translate(49,15)"/>
<path d="M0 0 C4.82856166 -0.38628493 8.11485977 -0.45837619 12.5 1.8125 C15 4 15 4 16 7 C14.02 7.99 12.04 8.98 10 10 C9.34 9.01 8.68 8.02 8 7 C8.66 6.01 9.32 5.02 10 4 C8.02 4.99 8.02 4.99 6 6 C6 7.32 6 8.64 6 10 C5.34 10 4.68 10 4 10 C3.76152344 10.57363281 3.52304688 11.14726562 3.27734375 11.73828125 C1.73490626 14.46938617 -0.08066082 16.12478197 -2.4375 18.1875 C-3.61119141 19.22970703 -3.61119141 19.22970703 -4.80859375 20.29296875 C-7 22 -7 22 -10 23 C-10.33 21.35 -10.66 19.7 -11 18 C-10.38125 17.814375 -9.7625 17.62875 -9.125 17.4375 C-6.63623693 16.09346368 -6.63623693 16.09346368 -6.125 12.6875 C-4.6687123 7.91411253 -3.04588502 6.78154595 1 4 C1.66 4 2.32 4 3 4 C3 3.34 3 2.68 3 2 C2.01 2 1.02 2 0 2 C0 1.34 0 0.68 0 0 Z " fill="#1E1F1F" transform="translate(68,19)"/>
<path d="M0 0 C0.66 0 1.32 0 2 0 C1.814375 0.94875 1.62875 1.8975 1.4375 2.875 C0.71313368 5.89868793 0.71313368 5.89868793 2 8 C2.66 8 3.32 8 4 8 C4 16.25 4 24.5 4 33 C2.515 33.495 2.515 33.495 1 34 C0.67 34.66 0.34 35.32 0 36 C-2.95629452 29.34833732 -3.08305834 20.96574709 -1 14 C-1.66 14 -2.32 14 -3 14 C-3.33 14.66 -3.66 15.32 -4 16 C-4.66 16 -5.32 16 -6 16 C-5.67 14.02 -5.34 12.04 -5 10 C-4.34 10 -3.68 10 -3 10 C-3.33 9.01 -3.66 8.02 -4 7 C-4.66 7 -5.32 7 -6 7 C-5.67 5.35 -5.34 3.7 -5 2 C-4.01 2 -3.02 2 -2 2 C-1.67 2.33 -1.34 2.66 -1 3 C-0.67 2.01 -0.34 1.02 0 0 Z " fill="#42392A" transform="translate(45,15)"/>
<path d="M0 0 C14.85 0 29.7 0 45 0 C45 0.33 45 0.66 45 1 C35.43 1 25.86 1 16 1 C16 3.97 16 6.94 16 10 C10.72 10 5.44 10 0 10 C0 6.7 0 3.4 0 0 Z " fill="#F4F3ED" transform="translate(49,3)"/>
<path d="M0 0 C5.28 0 10.56 0 16 0 C16.33 0.99 16.66 1.98 17 3 C16.0925 3.556875 15.185 4.11375 14.25 4.6875 C10.16222953 7.59610591 7.59498566 10.21504302 6 15 C5.2034833 21.40627002 5.86152588 25.90054253 9.41796875 31.30859375 C12.20818912 34.29171824 14.81562076 35.82089088 18.8671875 36.43359375 C25.47332402 36.44217315 29.73857223 36.14197505 35 32 C36.93694583 29.41796279 36.93694583 29.41796279 38 27 C37.34 26.01 36.68 25.02 36 24 C37.65 24.33 39.3 24.66 41 25 C38.78055054 31.52779252 35.26135649 35.86932176 29 39 C21.27442867 39.87563864 15.07056891 39.75175275 8.8125 34.828125 C4.47415814 30.45238364 2.81025458 26.12987829 2.5 20 C2.78916774 13.50868277 5.22520179 8.60214519 9.75 4 C10.4925 3.34 11.235 2.68 12 2 C8.04 1.67 4.08 1.34 0 1 C0 0.67 0 0.34 0 0 Z " fill="#272728" transform="translate(49,14)"/>
<path d="M0 0 C13.39372197 -1.0735426 13.39372197 -1.0735426 17.33203125 1.55859375 C18.78137699 3.31120891 19.96350475 4.97857644 21 7 C20.34 7.66 19.68 8.32 19 9 C17.8553125 7.824375 17.8553125 7.824375 16.6875 6.625 C13.22321121 3.24127606 11.06969342 1.78866899 6.3125 1.375 C5.50425781 1.30023437 4.69601563 1.22546875 3.86328125 1.1484375 C3.24839844 1.09945313 2.63351563 1.05046875 2 1 C2 1.66 2 2.32 2 3 C2.99 3 3.98 3 5 3 C5 3.66 5 4.32 5 5 C4.0925 5.53625 3.185 6.0725 2.25 6.625 C-1.2782872 8.81154418 -2.44553428 11.41015793 -3.9453125 15.1953125 C-5.27028697 17.46249103 -6.60325744 18.03533598 -9 19 C-9.86000826 8.25945238 -9.86000826 8.25945238 -6.75 4.3125 C-4 2 -4 2 0 2 C0 1.34 0 0.68 0 0 Z " fill="#3D362A" transform="translate(66,18)"/>
<path d="M0 0 C6.11576908 2.77989503 14.00246089 2.50870695 20.4375 0.5625 C20.4375 1.8825 20.4375 3.2025 20.4375 4.5625 C17.67132437 5.94558781 15.42732 5.67460196 12.3359375 5.66015625 C11.12421875 5.65693359 9.9125 5.65371094 8.6640625 5.65039062 C7.39304687 5.64201172 6.12203125 5.63363281 4.8125 5.625 C3.53375 5.62048828 2.255 5.61597656 0.9375 5.61132812 C-2.22921292 5.59951203 -5.39583356 5.58303815 -8.5625 5.5625 C-8.5625 3.5825 -8.5625 1.6025 -8.5625 -0.4375 C-3.25692484 -1.8270554 -3.25692484 -1.8270554 0 0 Z " fill="#BE984B" transform="translate(61.5625,50.4375)"/>
<path d="M0 0 C0.66 0 1.32 0 2 0 C2.33 1.65 2.66 3.3 3 5 C3.66 3.35 4.32 1.7 5 0 C5.66 0 6.32 0 7 0 C7.33 1.65 7.66 3.3 8 5 C8.66 3.35 9.32 1.7 10 0 C10.66 0 11.32 0 12 0 C11.34 5.28 10.68 10.56 10 16 C9.01 16.33 8.02 16.66 7 17 C6.67 15.68 6.34 14.36 6 13 C5.34 14.65 4.68 16.3 4 18 C3.34 18 2.68 18 2 18 C1.6603981 16.12612523 1.32861309 14.25083303 1 12.375 C0.7215625 10.80878906 0.7215625 10.80878906 0.4375 9.2109375 C0.01284203 6.09425135 -0.07545206 3.14069188 0 0 Z " fill="#EBECEC" transform="translate(21,61)"/>
<path d="M0 0 C0.99 0 1.98 0 3 0 C2.67 1.32 2.34 2.64 2 4 C4.9254644 4.2236068 4.9254644 4.2236068 7 3 C6.67 4.65 6.34 6.3 6 8 C2.125 9 2.125 9 1 9 C-0.53142345 10.71482745 -1.97310311 12.49479425 -3.4296875 14.2734375 C-5 16 -5 16 -8 18 C-8.33 18.99 -8.66 19.98 -9 21 C-10.32 20.67 -11.64 20.34 -13 20 C-12.01 20 -11.02 20 -10 20 C-10.99 18.68 -11.98 17.36 -13 16 C-12.37351563 15.45730469 -11.74703125 14.91460937 -11.1015625 14.35546875 C-10.28429687 13.64003906 -9.46703125 12.92460938 -8.625 12.1875 C-7.40683594 11.12595703 -7.40683594 11.12595703 -6.1640625 10.04296875 C-3.19061503 7.23590552 -1.90909844 4.89613617 -1 1 C-0.67 0.67 -0.34 0.34 0 0 Z " fill="#F8F8F5" transform="translate(75,23)"/>
<path d="M0 0 C0 2.97 0 5.94 0 9 C-3.96 9 -7.92 9 -12 9 C-12.66 7.02 -13.32 5.04 -14 3 C-9.07015675 0.96006486 -5.42039575 -0.40652968 0 0 Z " fill="#B8934F" transform="translate(94,4)"/>
<path d="M0 0 C4.29 0 8.58 0 13 0 C12.2575 0.70125 11.515 1.4025 10.75 2.125 C5.82480312 7.27406946 3.28912331 12.36154239 1 19 C0.67 19 0.34 19 0 19 C0 12.73 0 6.46 0 0 Z " fill="#FDFDFD" transform="translate(50,15)"/>
<path d="M0 0 C8.01545734 3.77197993 12.07464326 12.01902673 15 20 C17.82980672 28.54564147 16.95877121 40.08245757 13 48 C12.34 47.67 11.68 47.34 11 47 C11.48146484 45.78183594 11.48146484 45.78183594 11.97265625 44.5390625 C14.88255009 34.51486546 14.10654043 22.9219288 9.57421875 13.55859375 C7.52651454 10.23043927 5.19826448 7.39607171 2.453125 4.62109375 C1 3 1 3 0 0 Z " fill="#A88951" transform="translate(96,9)"/>
<path d="M0 0 C0.66 0 1.32 0 2 0 C0.69886735 2.85629596 -0.71588005 4.92210213 -2.875 7.1875 C-9.93484195 15.21397068 -11.28162988 24.24474214 -11.234375 34.6171875 C-10.90572611 39.36068644 -9.67923933 43.57200583 -8 48 C-8.99 47.67 -9.98 47.34 -11 47 C-15.92195193 37.15609614 -14.7656467 26.32138953 -11.4140625 16.23046875 C-8.73016641 10.09902659 -4.72505826 4.72505826 0 0 Z " fill="#B19765" transform="translate(45,9)"/>
<path d="M0 0 C1.37478516 0.01740234 1.37478516 0.01740234 2.77734375 0.03515625 C3.69644531 0.04417969 4.61554687 0.05320313 5.5625 0.0625 C6.27277344 0.07410156 6.98304687 0.08570313 7.71484375 0.09765625 C8.71484375 6.84765625 8.71484375 6.84765625 8.71484375 9.09765625 C4.75484375 9.09765625 0.79484375 9.09765625 -3.28515625 9.09765625 C-3.3828125 2.9453125 -3.3828125 2.9453125 -3.28515625 1.09765625 C-2.28515625 0.09765625 -2.28515625 0.09765625 0 0 Z " fill="#E2C383" transform="translate(54.28515625,3.90234375)"/>
<path d="M0 0 C0.66 0.66 1.32 1.32 2 2 C2.33 1.34 2.66 0.68 3 0 C3.66 0 4.32 0 5 0 C5.33 0.99 5.66 1.98 6 3 C6.66 2.01 7.32 1.02 8 0 C8 5.61 8 11.22 8 17 C5.8614515 14.8614515 5.57344937 13.86724686 5 11 C4.67 12.98 4.34 14.96 4 17 C3.34 16.01 2.68 15.02 2 14 C1.34 14.66 0.68 15.32 0 16 C0 10.72 0 5.44 0 0 Z " fill="#F4F5F5" transform="translate(109,61)"/>
<path d="M0 0 C10.89 0 21.78 0 33 0 C32.67 0.99 32.34 1.98 32 3 C21.77 3 11.54 3 1 3 C0.67 2.01 0.34 1.02 0 0 Z " fill="#151516" transform="translate(53,0)"/>
<path d="M0 0 C0.33 0.66 0.66 1.32 1 2 C1.66 2 2.32 2 3 2 C3.33 9.59 3.66 17.18 4 25 C3.34 25 2.68 25 2 25 C1.67 25.66 1.34 26.32 1 27 C-1.20796035 21.659005 -1.26953278 16.92321407 -1.1875 11.25 C-1.18685547 10.38761719 -1.18621094 9.52523437 -1.18554688 8.63671875 C-1.14079241 2.28158482 -1.14079241 2.28158482 0 0 Z " fill="#594B35" transform="translate(44,24)"/>
<path d="M0 0 C4.62 0 9.24 0 14 0 C14 3.63 14 7.26 14 11 C12.68 11 11.36 11 10 11 C8.6459068 9.01399663 7.31542376 7.01182457 6 5 C4.04148656 3.60644236 2.04872887 2.25717453 0 1 C0 0.67 0 0.34 0 0 Z " fill="#C79E4B" transform="translate(79,15)"/>
<path d="M0 0 C2.78637633 4.1795645 1.79562512 6.14668677 1 11 C1.33 10.67 1.66 10.34 2 10 C3.125 11.75 3.125 11.75 4 14 C3.25 15.9375 3.25 15.9375 2 18 C1.32033324 19.66140763 0.65061095 21.32700041 0 23 C-1.80411967 20.24075815 -2.0127245 19.11027897 -1.625 15.75 C-1.41875 14.8425 -1.2125 13.935 -1 13 C-2.65 13 -4.3 13 -6 13 C-6 10.03 -6 7.06 -6 4 C-5.01 5.485 -5.01 5.485 -4 7 C-3.67 5.68 -3.34 4.36 -3 3 C-2.67 3.33 -2.34 3.66 -2 4 C-1.67 3.01 -1.34 2.02 -1 1 C-0.67 0.67 -0.34 0.34 0 0 Z " fill="#796748" transform="translate(104,27)"/>
<path d="M0 0 C0.66 0 1.32 0 2 0 C2.66 1.65 3.32 3.3 4 5 C4.66 3.35 5.32 1.7 6 0 C6.66 0 7.32 0 8 0 C8 4.29 8 8.58 8 13 C6.68 12.67 5.36 12.34 4 12 C3.67 11.34 3.34 10.68 3 10 C2.67 10.99 2.34 11.98 2 13 C1.34 13 0.68 13 0 13 C0 8.71 0 4.42 0 0 Z " fill="#EFEFF0" transform="translate(79,61)"/>
<path d="M0 0 C0.9796875 -0.01417969 1.959375 -0.02835938 2.96875 -0.04296875 C5.5 0.1875 5.5 0.1875 7.5 2.1875 C3.21 2.1875 -1.08 2.1875 -5.5 2.1875 C-5.5 2.8475 -5.5 3.5075 -5.5 4.1875 C-6.61375 4.496875 -6.61375 4.496875 -7.75 4.8125 C-11.47939777 6.67719888 -12.61163078 8.47820331 -14.5 12.1875 C-14.94153953 14.48270998 -15.18102582 16.70706328 -15.32421875 19.0390625 C-15.4997745 21.18474385 -15.92382139 23.1170045 -16.5 25.1875 C-18.78792473 20.61165054 -17.97655183 14.64518795 -16.4375 9.9375 C-12.13128321 3.82545036 -7.54487562 0.04963734 0 0 Z " fill="#F5F3EB" transform="translate(71.5,15.8125)"/>
<path d="M0 0 C0.66 0 1.32 0 2 0 C2 1.98 2 3.96 2 6 C2.66 6 3.32 6 4 6 C4 4.02 4 2.04 4 0 C4.66 0 5.32 0 6 0 C6 5.28 6 10.56 6 16 C5.34 16 4.68 16 4 16 C4 13.69 4 11.38 4 9 C3.34 9 2.68 9 2 9 C2 10.98 2 12.96 2 15 C1.34 15 0.68 15 0 15 C0 10.05 0 5.1 0 0 Z " fill="#E5E6E6" transform="translate(102,61)"/>
<path d="M0 0 C0.99 0 1.98 0 3 0 C3.66 4.95 4.32 9.9 5 15 C4.34 15 3.68 15 3 15 C3 14.01 3 13.02 3 12 C2.01 12 1.02 12 0 12 C0 13.32 0 14.64 0 16 C-0.66 16 -1.32 16 -2 16 C-1.85764543 14.27054347 -1.71095618 12.54144346 -1.5625 10.8125 C-1.48128906 9.84957031 -1.40007813 8.88664062 -1.31640625 7.89453125 C-1.02333849 5.21350398 -0.57296246 2.6337014 0 0 Z " fill="#F6F6F7" transform="translate(35,61)"/>
<path d="M0 0 C0.99 0 1.98 0 3 0 C4.26264601 4.29299643 3.62950412 6.87831311 2 11 C-0.97 11 -3.94 11 -7 11 C-6.57847656 10.45730469 -6.15695313 9.91460937 -5.72265625 9.35546875 C-5.17480469 8.64003906 -4.62695312 7.92460938 -4.0625 7.1875 C-3.51722656 6.47980469 -2.97195312 5.77210937 -2.41015625 5.04296875 C-0.83143752 2.95874948 -0.83143752 2.95874948 0 0 Z " fill="#BE974B" transform="translate(89,40)"/>
<path d="M0 0 C0.66 0 1.32 0 2 0 C2 1.98 2 3.96 2 6 C2.66 6 3.32 6 4 6 C4 4.02 4 2.04 4 0 C4.66 0 5.32 0 6 0 C6 4.62 6 9.24 6 14 C5.34 14 4.68 14 4 14 C4 12.02 4 10.04 4 8 C3.34 8 2.68 8 2 8 C2 9.98 2 11.96 2 14 C1.34 14 0.68 14 0 14 C0 9.38 0 4.76 0 0 Z " fill="#F2F2F2" transform="translate(49,61)"/>
<path d="M0 0 C1.65 0 3.3 0 5 0 C5 0.66 5 1.32 5 2 C4.01 2 3.02 2 2 2 C2 3.65 2 5.3 2 7 C2.66 7 3.32 7 4 7 C4 7.99 4 8.98 4 10 C3.34 10 2.68 10 2 10 C2.34227572 12.97065509 2.34227572 12.97065509 3 16 C3.66 16.33 4.32 16.66 5 17 C5 17.66 5 18.32 5 19 C3.35 18.67 1.7 18.34 0 18 C0 12.06 0 6.12 0 0 Z " fill="#ECEDED" transform="translate(119,61)"/>
<path d="M0 0 C0.66 0 1.32 0 2 0 C2.33 0.99 2.66 1.98 3 3 C3.33 2.01 3.66 1.02 4 0 C4.66 0 5.32 0 6 0 C6 4.29 6 8.58 6 13 C5.34 13 4.68 13 4 13 C3.34 11.35 2.68 9.7 2 8 C1.67 9.65 1.34 11.3 1 13 C0.67 13 0.34 13 0 13 C0 8.71 0 4.42 0 0 Z " fill="#FCFCFC" transform="translate(61,61)"/>
<path d="M0 0 C0.66 0 1.32 0 2 0 C2.99 4.29 3.98 8.58 5 13 C4.01 13.495 4.01 13.495 3 14 C3 13.01 3 12.02 3 11 C2.01 11 1.02 11 0 11 C0 11.99 0 12.98 0 14 C-0.66 14 -1.32 14 -2 14 C-1.85866501 12.22880197 -1.71176792 10.45804713 -1.5625 8.6875 C-1.48128906 7.70136719 -1.40007812 6.71523437 -1.31640625 5.69921875 C-1 3 -1 3 0 0 Z " fill="#F4F5F5" transform="translate(90,61)"/>
<path d="M0 0 C2.0625 0.4375 2.0625 0.4375 4 1 C4 1.99 4 2.98 4 4 C3.34 4 2.68 4 2 4 C2 3.34 2 2.68 2 2 C1.34 2 0.68 2 0 2 C1.3089572 5.12197478 1.3089572 5.12197478 4 7 C4 9.31 4 11.62 4 14 C2.35 14.33 0.7 14.66 -1 15 C-1.33 13.68 -1.66 12.36 -2 11 C-1.34 11 -0.68 11 0 11 C0 11.66 0 12.32 0 13 C0.66 13 1.32 13 2 13 C0.92598892 10.08482708 0.22189824 8.22189824 -2 6 C-1.44444444 1.44444444 -1.44444444 1.44444444 0 0 Z " fill="#EFF0F0" transform="translate(43,61)"/>
<path d="M0 0 C0.33 0 0.66 0 1 0 C1.04898438 0.81984375 1.09796875 1.6396875 1.1484375 2.484375 C1.22320312 3.56203125 1.29796875 4.6396875 1.375 5.75 C1.44460937 6.81734375 1.51421875 7.8846875 1.5859375 8.984375 C1.98367407 11.88109793 2.34024841 13.61676695 4 16 C5.92691633 17.32380339 5.92691633 17.32380339 8.125 18.25 C9.21167969 18.75273438 9.21167969 18.75273438 10.3203125 19.265625 C10.87460938 19.50796875 11.42890625 19.7503125 12 20 C11.34 20.66 10.68 21.32 10 22 C6.35956361 22 5.01916914 21.01655516 2.25 18.625 C-1.04060381 14.36170199 -1.11039031 9.21988484 -1 4 C-0.5078125 1.6640625 -0.5078125 1.6640625 0 0 Z " fill="#BB9C62" transform="translate(56,28)"/>
<path d="M0 0 C1.32 0.66 2.64 1.32 4 2 C4 2.99 4 3.98 4 5 C3.34 5 2.68 5 2 5 C2 4.34 2 3.68 2 3 C1.34 3 0.68 3 0 3 C0.33 5.97 0.66 8.94 1 12 C1.33 11.34 1.66 10.68 2 10 C2.66 10 3.32 10 4 10 C3.67 11.65 3.34 13.3 3 15 C0.525 14.01 0.525 14.01 -2 13 C-2.05391993 11.20866022 -2.09275571 9.41686101 -2.125 7.625 C-2.14820312 6.62726563 -2.17140625 5.62953125 -2.1953125 4.6015625 C-2 2 -2 2 0 0 Z " fill="#EFF0F0" transform="translate(97,61)"/>
<path d="M0 0 C2.125 0.375 2.125 0.375 4 1 C4 1.99 4 2.98 4 4 C3.34 4 2.68 4 2 4 C2 3.34 2 2.68 2 2 C1.34 2 0.68 2 0 2 C0 4.97 0 7.94 0 11 C0.99 11 1.98 11 3 11 C2.67 9.35 2.34 7.7 2 6 C2.99 6 3.98 6 5 6 C5.125 8.375 5.125 8.375 5 11 C4.34 11.66 3.68 12.32 3 13 C-0.53571429 12.46428571 -0.53571429 12.46428571 -2 11 C-2.16796875 9.00390625 -2.16796875 9.00390625 -2.1875 6.5625 C-2.20167969 5.75941406 -2.21585937 4.95632812 -2.23046875 4.12890625 C-2 2 -2 2 0 0 Z " fill="#DADBDB" transform="translate(70,61)"/>
<path d="M0 0 C2.475 0.495 2.475 0.495 5 1 C2.78055054 7.52779252 -0.73864351 11.86932176 -7 15 C-8.70702735 15.06996014 -10.41668003 15.08440154 -12.125 15.0625 C-13.03507812 15.05347656 -13.94515625 15.04445313 -14.8828125 15.03515625 C-15.58148438 15.02355469 -16.28015625 15.01195312 -17 15 C-17 14.67 -17 14.34 -17 14 C-16.14728516 13.85304688 -16.14728516 13.85304688 -15.27734375 13.703125 C-8.73397411 12.4359616 -3.08250268 10.95581026 0.9375 5.25 C1.4634375 4.13625 1.4634375 4.13625 2 3 C1.34 2.01 0.68 1.02 0 0 Z " fill="#24201A" transform="translate(85,38)"/>
<path d="M0 0 C2.27177532 1.77791112 2.96272851 2.85430236 3.6875 5.6875 C4.04657156 9.49365855 4.06589696 13.17797661 4 17 C3.67 17 3.34 17 3 17 C2.67 15.35 2.34 13.7 2 12 C1.67 12.99 1.34 13.98 1 15 C0.67 13.02 0.34 11.04 0 9 C-0.66 9 -1.32 9 -2 9 C-1.814375 8.4225 -1.62875 7.845 -1.4375 7.25 C-0.95976454 4.79307475 -1.24270636 3.35602466 -2 1 C-1.34 0.67 -0.68 0.34 0 0 Z " fill="#4E412B" transform="translate(99,22)"/>
<path d="M0 0 C0.66 0 1.32 0 2 0 C2.05789006 3.45826342 2.09355821 6.91640293 2.125 10.375 C2.14175781 11.35984375 2.15851562 12.3446875 2.17578125 13.359375 C2.18222656 14.30039062 2.18867187 15.24140625 2.1953125 16.2109375 C2.20578613 17.08024902 2.21625977 17.94956055 2.22705078 18.84521484 C2 21 2 21 0 23 C-0.19689005 19.72966072 -0.38089008 16.45872059 -0.5625 13.1875 C-0.61857422 12.25873047 -0.67464844 11.32996094 -0.73242188 10.37304688 C-0.78076172 9.48037109 -0.82910156 8.58769531 -0.87890625 7.66796875 C-0.9260376 6.84578857 -0.97316895 6.0236084 -1.02172852 5.17651367 C-1 3 -1 3 0 0 Z " fill="#201F1F" transform="translate(47,25)"/>
<path d="M0 0 C0.99 0 1.98 0 3 0 C2.67 1.32 2.34 2.64 2 4 C4.9254644 4.2236068 4.9254644 4.2236068 7 3 C6.67 4.65 6.34 6.3 6 8 C3.21176345 9.0326802 2.1322726 9.04509293 -0.75 8.0625 C-1.4925 7.711875 -2.235 7.36125 -3 7 C-1.125 1.125 -1.125 1.125 0 0 Z " fill="#F4F4F5" transform="translate(75,23)"/>
<path d="M0 0 C2.97 0.495 2.97 0.495 6 1 C6 3.64 6 6.28 6 9 C5.34 9 4.68 9 4 9 C3.67 8.34 3.34 7.68 3 7 C2.67 7.66 2.34 8.32 2 9 C1.34 9 0.68 9 0 9 C0 6.03 0 3.06 0 0 Z " fill="#D1D2D3" transform="translate(49,77)"/>
<path d="M0 0 C2.97 0 5.94 0 9 0 C9 1.65 9 3.3 9 5 C6.03 5 3.06 5 0 5 C0 3.35 0 1.7 0 0 Z " fill="#211D18" transform="translate(82,51)"/>
<path d="M0 0 C-1.28412744 2.82386318 -2.64209471 4.8009614 -4.8125 7 C-8.94508155 11.6402697 -10.86333876 17.24235977 -13 23 C-13.33 23 -13.66 23 -14 23 C-13.58095844 16.43501562 -8.06518227 0 0 0 Z " fill="#DDC99D" transform="translate(47,9)"/>
<path d="M0 0 C0.4125 0.556875 0.825 1.11375 1.25 1.6875 C1.8275 2.450625 2.405 3.21375 3 4 C3.639375 4.86625 4.27875 5.7325 4.9375 6.625 C8.27184112 10.46454432 11.26483034 11.23143397 16.25 11.625 C17.14203125 11.69976562 18.0340625 11.77453125 18.953125 11.8515625 C19.96632813 11.92503906 19.96632813 11.92503906 21 12 C21 12.33 21 12.66 21 13 C16.52986477 14.02654463 12.69138006 14.75794174 8.40234375 12.8359375 C4.84107989 10.48492429 2.38542976 8.57814465 0 5 C-0.125 2.3125 -0.125 2.3125 0 0 Z " fill="#342B1C" transform="translate(54,39)"/>
<path d="M0 0 C1.66611905 -0.042721 3.33382885 -0.04063832 5 0 C6 1 6 1 6.0625 3.5625 C6.041875 4.366875 6.02125 5.17125 6 6 C3.625 6.625 3.625 6.625 1 7 C0.34 6.34 -0.32 5.68 -1 5 C-0.625 2.375 -0.625 2.375 0 0 Z " fill="#655B48" transform="translate(69,5)"/>
<path d="M0 0 C0 1.65 0 3.3 0 5 C-2.64 5 -5.28 5 -8 5 C-8 3.35 -8 1.7 -8 0 C-2.25 -1.125 -2.25 -1.125 0 0 Z " fill="#D9B670" transform="translate(61,50)"/>
<path d="M0 0 C13.39372197 -1.0735426 13.39372197 -1.0735426 17.33203125 1.55859375 C18.78137699 3.31120891 19.96350475 4.97857644 21 7 C20.34 7.66 19.68 8.32 19 9 C17.8553125 7.824375 17.8553125 7.824375 16.6875 6.625 C12.83018174 2.85738682 10.5973958 1.74805147 5.3125 1.375 C4.31863281 1.30023437 3.32476562 1.22546875 2.30078125 1.1484375 C1.54152344 1.09945313 0.78226562 1.05046875 0 1 C0 0.67 0 0.34 0 0 Z " fill="#BD9B5A" transform="translate(66,18)"/>
<path d="M0 0 C2.475 0.495 2.475 0.495 5 1 C5.82638376 3.89234315 6 5.88742431 6 9 C4 9 4 9 2.375 7.5 C1.92125 7.005 1.4675 6.51 1 6 C0.67 6.66 0.34 7.32 0 8 C0 5.36 0 2.72 0 0 Z " fill="#F8F8F8" transform="translate(88,77)"/>
<path d="M0 0 C2.97 0.99 5.94 1.98 9 3 C9 3.66 9 4.32 9 5 C3.39 5 -2.22 5 -8 5 C-8 4.67 -8 4.34 -8 4 C-5.36 4 -2.72 4 0 4 C0 2.68 0 1.36 0 0 Z " fill="#C8A255" transform="translate(61,51)"/>
<path d="M0 0 C0.33 0 0.66 0 1 0 C2.69857238 7.32650887 4.38168081 14.65532059 6 22 C5.34 22 4.68 22 4 22 C1.1082716 14.48666996 -0.64323227 8.07613852 0 0 Z " fill="#625135" transform="translate(36,35)"/>
<path d="M0 0 C1.65 0 3.3 0 5 0 C5.33 1.65 5.66 3.3 6 5 C4.68 5.33 3.36 5.66 2 6 C2 6.99 2 7.98 2 9 C1.34 9 0.68 9 0 9 C0 6.03 0 3.06 0 0 Z " fill="#D7D7D8" transform="translate(66,77)"/>
<path d="M0 0 C0.99 0 1.98 0 3 0 C3 3.3 3 6.6 3 10 C1.68 10 0.36 10 -1 10 C-1.02689216 8.52093108 -1.04634621 7.04172517 -1.0625 5.5625 C-1.07410156 4.73878906 -1.08570312 3.91507813 -1.09765625 3.06640625 C-1 1 -1 1 0 0 Z " fill="#D2BB8E" transform="translate(87,28)"/>
<path d="M0 0 C3.96 0 7.92 0 12 0 C11.01 2.31 10.02 4.62 9 7 C7.4972763 6.02501855 5.99788037 5.04490611 4.5 4.0625 C3.6646875 3.51722656 2.829375 2.97195312 1.96875 2.41015625 C1.3190625 1.94480469 0.669375 1.47945312 0 1 C0 0.67 0 0.34 0 0 Z " fill="#CCA85D" transform="translate(79,15)"/>
<path d="M0 0 C0.66 0 1.32 0 2 0 C2.99 2.97 3.98 5.94 5 9 C4.34 9 3.68 9 3 9 C3 8.34 3 7.68 3 7 C1.68 7 0.36 7 -1 7 C-1 7.66 -1 8.32 -1 9 C-1.66 9 -2.32 9 -3 9 C-2.01 6.03 -1.02 3.06 0 0 Z " fill="#EFEFF0" transform="translate(76,77)"/>
<path d="M0 0 C0.33 1.32 0.66 2.64 1 4 C1.66 4 2.32 4 3 4 C3.33 3.34 3.66 2.68 4 2 C3.25 6.75 3.25 6.75 1 9 C0.34 8.67 -0.32 8.34 -1 8 C-1.66 9.32 -2.32 10.64 -3 12 C-4.125 7.25 -4.125 7.25 -3 5 C-2.34 5 -1.68 5 -1 5 C-0.67 3.35 -0.34 1.7 0 0 Z " fill="#594A31" transform="translate(102,46)"/>
<path d="M0 0 C0 0.66 0 1.32 0 2 C-0.9075 2.53625 -1.815 3.0725 -2.75 3.625 C-6.78229894 6.12846522 -8.23786232 9.72940751 -10 14 C-10.33 14 -10.66 14 -11 14 C-11.32420072 9.35312297 -10.96807592 6.66062697 -8 3 C-2.93103448 0 -2.93103448 0 0 0 Z " fill="#F0F1F1" transform="translate(71,21)"/>
<path d="M0 0 C0.99 0.33 1.98 0.66 3 1 C2.34 1 1.68 1 1 1 C1.66 2.98 2.32 4.96 3 7 C0.03 7 -2.94 7 -6 7 C-5.34 5.02 -4.68 3.04 -4 1 C-3.34 1.66 -2.68 2.32 -2 3 C-1.34 2.01 -0.68 1.02 0 0 Z " fill="#C8A258" transform="translate(79,6)"/>
<path d="M0 0 C1.67542976 0.28604898 3.34385343 0.61781233 5 1 C4.67 2.65 4.34 4.3 4 6 C2.68 6.33 1.36 6.66 0 7 C-0.38133299 5.0085944 -0.71325582 3.00720923 -1 1 C-0.67 0.67 -0.34 0.34 0 0 Z " fill="#5C4F3B" transform="translate(84,5)"/>
<path d="M0 0 C3.08972418 3.08972418 2.96334732 6.74828934 3 11 C2.0625 14.0625 2.0625 14.0625 1 16 C0.67 16 0.34 16 0 16 C0 10.72 0 5.44 0 0 Z " fill="#9C9D9E" transform="translate(109,61)"/>
<path d="M0 0 C0.96164063 -0.00515625 1.92328125 -0.0103125 2.9140625 -0.015625 C5.375 0.25 5.375 0.25 7.375 2.25 C3.085 2.25 -1.205 2.25 -5.625 2.25 C-5.625 2.91 -5.625 3.57 -5.625 4.25 C-6.945 4.25 -8.265 4.25 -9.625 4.25 C-9.625 3.59 -9.625 2.93 -9.625 2.25 C-6.33170174 0.28338587 -3.81203427 -0.02055005 0 0 Z " fill="#EBE1CB" transform="translate(71.625,15.75)"/>
<path d="M0 0 C0.66 0 1.32 0 2 0 C2 0.99 2 1.98 2 3 C4.31 3 6.62 3 9 3 C9 2.01 9 1.02 9 0 C9.66 0 10.32 0 11 0 C11 1.65 11 3.3 11 5 C7.37 5 3.74 5 0 5 C0 3.35 0 1.7 0 0 Z " fill="#343028" transform="translate(52,6)"/>
<path d="M0 0 C0.99 0 1.98 0 3 0 C3 2.97 3 5.94 3 9 C1.35 8.67 -0.3 8.34 -2 8 C-1.34 5.36 -0.68 2.72 0 0 Z " fill="#BA9043" transform="translate(91,4)"/>
<path d="M0 0 C0.33 0.66 0.66 1.32 1 2 C1.66 2 2.32 2 3 2 C3 2.66 3 3.32 3 4 C2.21625 4.061875 1.4325 4.12375 0.625 4.1875 C-0.24125 4.455625 -1.1075 4.72375 -2 5 C-3.37466625 7.47636012 -3.37466625 7.47636012 -4 10 C-4.99 10 -5.98 10 -7 10 C-6.67 8.02 -6.34 6.04 -6 4 C-5.34 4 -4.68 4 -4 4 C-2.62689293 2.70766393 -1.28965176 1.37562854 0 0 Z " fill="#342E23" transform="translate(46,21)"/>
<path d="M0 0 C4.29 0 8.58 0 13 0 C11 1 9 2 7 3 C6.01 2.67 5.02 2.34 4 2 C3.34 3.32 2.68 4.64 2 6 C0 3 0 3 0 0 Z " fill="#D0AB62" transform="translate(75,4)"/>
<path d="M0 0 C0.66 0.33 1.32 0.66 2 1 C1.979375 1.78375 1.95875 2.5675 1.9375 3.375 C1.81315937 5.98114961 1.81315937 5.98114961 3 8 C0.36 8 -2.28 8 -5 8 C-4.67 7.01 -4.34 6.02 -4 5 C-3.34 5 -2.68 5 -2 5 C-1.34 3.35 -0.68 1.7 0 0 Z " fill="#2F2922" transform="translate(106,50)"/>
<path d="M0 0 C0.99 0.33 1.98 0.66 3 1 C3 5.95 3 10.9 3 16 C2.67 16 2.34 16 2 16 C1.34 13.69 0.68 11.38 0 9 C-0.33 9 -0.66 9 -1 9 C-0.67 6.03 -0.34 3.06 0 0 Z " fill="#352D20" transform="translate(38,31)"/>
<path d="M0 0 C0.33 3.63 0.66 7.26 1 11 C0.34 11 -0.32 11 -1 11 C-1 10.01 -1 9.02 -1 8 C-1.99 8 -2.98 8 -4 8 C-3.74438677 5.6568787 -3.40729228 3.32156597 -3 1 C-1 0 -1 0 0 0 Z " fill="#CCCDCE" transform="translate(39,65)"/>
<path d="M0 0 C0.33 0 0.66 0 1 0 C1.3125 2.25 1.3125 2.25 1 5 C-1.75253132 7.99540173 -3.22687285 8.94165078 -7.3125 9.25 C-8.199375 9.1675 -9.08625 9.085 -10 9 C-7.68143083 7.45428722 -5.49361571 6.20381448 -3 5 C-3 4.01 -3 3.02 -3 2 C-2.01 2 -1.02 2 0 2 C0 1.34 0 0.68 0 0 Z " fill="#E0E1E1" transform="translate(80,36)"/>
<path d="M0 0 C0.99 0 1.98 0 3 0 C3 2.97 3 5.94 3 9 C-1.29 8.67 -5.58 8.34 -10 8 C-10 7.67 -10 7.34 -10 7 C-6.37 7 -2.74 7 1 7 C0.67 4.69 0.34 2.38 0 0 Z " fill="#F6E9C4" transform="translate(62,4)"/>
<path d="M0 0 C0.66 0 1.32 0 2 0 C2.66 4.29 3.32 8.58 4 13 C3.34 13 2.68 13 2 13 C1.67 13.66 1.34 14.32 1 15 C0.67 10.05 0.34 5.1 0 0 Z " fill="#E9EAEA" transform="translate(21,61)"/>
<path d="M0 0 C0.33 0 0.66 0 1 0 C1.05422947 1.4370809 1.09289723 2.87475462 1.125 4.3125 C1.14820313 5.11300781 1.17140625 5.91351563 1.1953125 6.73828125 C1 9 1 9 -1 12 C-1 10.35 -1 8.7 -1 7 C-2.32 6.34 -3.64 5.68 -5 5 C-5 4.01 -5 3.02 -5 2 C-3 2 -3 2 -1.375 3.5 C-0.92125 3.995 -0.4675 4.49 0 5 C0 3.35 0 1.7 0 0 Z " fill="#38393A" transform="translate(48,61)"/>
<path d="M0 0 C0.66 0.33 1.32 0.66 2 1 C1.50628906 1.39832031 1.01257813 1.79664063 0.50390625 2.20703125 C-0.13675781 2.73683594 -0.77742188 3.26664063 -1.4375 3.8125 C-2.07558594 4.33457031 -2.71367188 4.85664062 -3.37109375 5.39453125 C-5.2548275 7.00834411 -5.2548275 7.00834411 -6 10 C-7.32 9.67 -8.64 9.34 -10 9 C-9.01 9 -8.02 9 -7 9 C-7.99 7.68 -8.98 6.36 -10 5 C-7 4 -7 4 -5 3.625 C-2.64357811 2.88861816 -1.60133714 1.84153771 0 0 Z " fill="#D5CFC0" transform="translate(72,34)"/>
<path d="M0 0 C0.33 0 0.66 0 1 0 C1 5.61 1 11.22 1 17 C-1.76223278 14.23776722 -1.57856291 11.79293383 -2 8 C-1.34 8 -0.68 8 0 8 C0 5.36 0 2.72 0 0 Z " fill="#FBFBFB" transform="translate(116,61)"/>
<path d="M0 0 C2.29633824 3.44450737 2.54016485 5.93812283 3 10 C1.35 10 -0.3 10 -2 10 C-2 7.03 -2 4.06 -2 1 C-1.01 2.485 -1.01 2.485 0 4 C0 2.68 0 1.36 0 0 Z " fill="#8A7550" transform="translate(100,30)"/>
<path d="M0 0 C2.97 0 5.94 0 9 0 C8.67 0.99 8.34 1.98 8 3 C5.69 3 3.38 3 1 3 C0.67 2.01 0.34 1.02 0 0 Z " fill="#6F5C3C" transform="translate(37,80)"/>
<path d="M0 0 C0.33 0.66 0.66 1.32 1 2 C1.66 2 2.32 2 3 2 C3.66 3.98 4.32 5.96 5 8 C4.34 8.66 3.68 9.32 3 10 C0.59185923 6.48812804 -0.36629408 4.27343092 0 0 Z " fill="#5B4B30" transform="translate(41,48)"/>
<path d="M0 0 C5.28 0 10.56 0 16 0 C16.33 0.99 16.66 1.98 17 3 C16.01 3.33 15.02 3.66 14 4 C13.34 3.34 12.68 2.68 12 2 C9.10776497 1.53603307 9.10776497 1.53603307 5.875 1.375 C4.23144531 1.26285156 4.23144531 1.26285156 2.5546875 1.1484375 C1.71164063 1.09945313 0.86859375 1.05046875 0 1 C0 0.67 0 0.34 0 0 Z " fill="#303033" transform="translate(49,14)"/>
<path d="M0 0 C0.66 0 1.32 0 2 0 C2 0.66 2 1.32 2 2 C2.99 2 3.98 2 5 2 C5 3.32 5 4.64 5 6 C3.35 6 1.7 6 0 6 C0 4.02 0 2.04 0 0 Z " fill="#141515" transform="translate(97,64)"/>
<path d="M0 0 C0.66 0 1.32 0 2 0 C3.125 5.625 3.125 5.625 2 9 C1.34 9 0.68 9 0 9 C-1.125 3.375 -1.125 3.375 0 0 Z " fill="#CBCBCB" transform="translate(90,61)"/>
<path d="M0 0 C0.99 0 1.98 0 3 0 C3 2.31 3 4.62 3 7 C1.68 7 0.36 7 -1 7 C-0.67 4.69 -0.34 2.38 0 0 Z " fill="#5B4D35" transform="translate(98,41)"/>
<path d="M0 0 C0.66 0 1.32 0 2 0 C2.66 1.98 3.32 3.96 4 6 C3.01 6 2.02 6 1 6 C1 8.31 1 10.62 1 13 C0.67 13 0.34 13 0 13 C0 8.71 0 4.42 0 0 Z " fill="#F5F5F6" transform="translate(61,61)"/>
<path d="M0 0 C0.66 0 1.32 0 2 0 C2 4.29 2 8.58 2 13 C1.67 13 1.34 13 1 13 C1 10.69 1 8.38 1 6 C0.34 6 -0.32 6 -1 6 C-0.67 4.02 -0.34 2.04 0 0 Z " fill="#F9FAFA" transform="translate(85,61)"/>
<path d="M0 0 C0.33 0.66 0.66 1.32 1 2 C1.99 1.67 2.98 1.34 4 1 C4.625 2.875 4.625 2.875 5 5 C4.34 5.66 3.68 6.32 3 7 C2.34 7 1.68 7 1 7 C1 6.01 1 5.02 1 4 C0.34 4 -0.32 4 -1 4 C-0.67 2.68 -0.34 1.36 0 0 Z " fill="#61543B" transform="translate(38,20)"/>
<path d="M0 0 C0.99 0 1.98 0 3 0 C3.125 2.375 3.125 2.375 3 5 C2.34 5.66 1.68 6.32 1 7 C-1.125 6.625 -1.125 6.625 -3 6 C-1.68 5.67 -0.36 5.34 1 5 C0.67 3.35 0.34 1.7 0 0 Z " fill="#F0F0F0" transform="translate(72,67)"/>
<path d="M0 0 C0.33 0 0.66 0 1 0 C1 3.3 1 6.6 1 10 C0.01 10 -0.98 10 -2 10 C-1.46274105 6.62294375 -0.88935377 3.303314 0 0 Z " fill="#A77F3D" transform="translate(93,47)"/>
<path d="M0 0 C0.33 0 0.66 0 1 0 C1 2.97 1 5.94 1 9 C0.01 9.33 -0.98 9.66 -2 10 C-2 8.35 -2 6.7 -2 5 C-1.34 5 -0.68 5 0 5 C0 3.35 0 1.7 0 0 Z " fill="#FAFAFA" transform="translate(25,69)"/>
<path d="M0 0 C1.74271938 2.297221 3.39911152 4.59866729 5 7 C4.67 7.99 4.34 8.98 4 10 C0.06153846 5.69230769 0.06153846 5.69230769 -0.25 2.1875 C-0.1675 1.465625 -0.085 0.74375 0 0 Z " fill="#2F2E2C" transform="translate(54,39)"/>
<path d="M0 0 C0 0.66 0 1.32 0 2 C-1.65 2.66 -3.3 3.32 -5 4 C-5.33 2.68 -5.66 1.36 -6 0 C-3.50907189 -1.24546405 -2.58919267 -0.7767578 0 0 Z " fill="#4C4B4B" transform="translate(65,41)"/>
<path d="M0 0 C0.33 1.32 0.66 2.64 1 4 C-0.32 4 -1.64 4 -3 4 C-3 4.66 -3 5.32 -3 6 C-3.66 6 -4.32 6 -5 6 C-4.625 3.5625 -4.625 3.5625 -4 1 C-2 0 -2 0 0 0 Z " fill="#C5C6C6" transform="translate(78,80)"/>
<path d="M0 0 C0.33 0 0.66 0 1 0 C1 2.64 1 5.28 1 8 C0.01 8.33 -0.98 8.66 -2 9 C-2 7.35 -2 5.7 -2 4 C-1.34 4 -0.68 4 0 4 C0 2.68 0 1.36 0 0 Z " fill="#FDFDFD" transform="translate(30,69)"/>
<path d="M0 0 C1.98 0 3.96 0 6 0 C6 1.32 6 2.64 6 4 C5.34 4 4.68 4 4 4 C4 3.34 4 2.68 4 2 C3.34 2 2.68 2 2 2 C1.67 2.99 1.34 3.98 1 5 C0.67 3.35 0.34 1.7 0 0 Z " fill="#2E2E2F" transform="translate(39,70)"/>
<path d="M0 0 C1.98 0 3.96 0 6 0 C6 0.99 6 1.98 6 3 C4.02 3 2.04 3 0 3 C0 2.01 0 1.02 0 0 Z " fill="#947540" transform="translate(83,52)"/>
<path d="M0 0 C0.33 0.66 0.66 1.32 1 2 C1.66 2 2.32 2 3 2 C2.34 4.31 1.68 6.62 1 9 C-0.61949011 6.42786866 -1.04408751 5.32330841 -0.625 2.25 C-0.41875 1.5075 -0.2125 0.765 0 0 Z " fill="#786748" transform="translate(44,24)"/>
<path d="M0 0 C0.99 0 1.98 0 3 0 C3.66 2.31 4.32 4.62 5 7 C4.34 7 3.68 7 3 7 C2.67 5.68 2.34 4.36 2 3 C1.34 3 0.68 3 0 3 C0 2.01 0 1.02 0 0 Z " fill="#959797" transform="translate(89,79)"/>
<path d="M0 0 C0.99 0 1.98 0 3 0 C2.67 2.64 2.34 5.28 2 8 C1.34 7.67 0.68 7.34 0 7 C0 4.69 0 2.38 0 0 Z " fill="#303132" transform="translate(32,64)"/>
<path d="M0 0 C1.64350079 3.28700157 2.41321669 5.47930015 3 9 C2.01 9 1.02 9 0 9 C0 6.03 0 3.06 0 0 Z " fill="#434445" transform="translate(70,63)"/>
<path d="M0 0 C1.65 0 3.3 0 5 0 C5 0.66 5 1.32 5 2 C4.01 2 3.02 2 2 2 C1.67 3.65 1.34 5.3 1 7 C0.67 7 0.34 7 0 7 C0 4.69 0 2.38 0 0 Z " fill="#FAFBFC" transform="translate(119,61)"/>
<path d="M0 0 C1.98 0 3.96 0 6 0 C5.67 0.99 5.34 1.98 5 3 C3.35 3 1.7 3 0 3 C0 2.01 0 1.02 0 0 Z " fill="#EACC8E" transform="translate(53,50)"/>
<path d="M0 0 C0 2.31 0 4.62 0 7 C-0.66 7 -1.32 7 -2 7 C-2.33 5.02 -2.66 3.04 -3 1 C-1 0 -1 0 0 0 Z " fill="#2E2B25" transform="translate(49,48)"/>
<path d="M0 0 C0.33 0 0.66 0 1 0 C1.33 3.63 1.66 7.26 2 11 C0.35 10.67 -1.3 10.34 -3 10 C-2.01 9.67 -1.02 9.34 0 9 C0 6.03 0 3.06 0 0 Z " fill="#4A3C26" transform="translate(90,29)"/>
<path d="M0 0 C3.26460973 1.80412643 4.88929795 2.83394693 7 6 C4 6 4 6 1.8125 4.125 C0 2 0 2 0 0 Z " fill="#AB8D54" transform="translate(96,9)"/>
</svg>
